<svg xmlns="http://www.w3.org/2000/svg" xmlns:xlink="http://www.w3.org/1999/xlink" width="350" zoomAndPan="magnify" viewBox="0 0 262.5 149.999998" height="200" preserveAspectRatio="xMidYMid meet" version="1.0"><defs><g/><clipPath id="baa9c98238"><path d="M 204.363281 55.558594 L 211.640625 55.558594 L 211.640625 115.1875 L 204.363281 115.1875 Z M 204.363281 55.558594 " clip-rule="nonzero"/></clipPath><clipPath id="4a5e0553d2"><path d="M 87 10.058594 L 99 10.058594 L 99 81 L 87 81 Z M 87 10.058594 " clip-rule="nonzero"/></clipPath><clipPath id="3710ed8712"><path d="M 246 88 L 252.648438 88 L 252.648438 95 L 246 95 Z M 246 88 " clip-rule="nonzero"/></clipPath><clipPath id="bcd8538da5"><path d="M 30.382812 37.261719 L 37.246094 37.261719 L 37.246094 44.09375 L 30.382812 44.09375 Z M 30.382812 37.261719 " clip-rule="nonzero"/></clipPath><clipPath id="6c65d5b32d"><path d="M 60.578125 57.5625 L 70.753906 57.5625 L 70.753906 67.738281 L 60.578125 67.738281 Z M 60.578125 57.5625 " clip-rule="nonzero"/></clipPath><clipPath id="aa672e203f"><path d="M 65.667969 57.5625 C 64.992188 57.5625 64.34375 57.691406 63.71875 57.949219 C 63.097656 58.207031 62.546875 58.578125 62.070312 59.054688 C 61.59375 59.53125 61.226562 60.082031 60.96875 60.703125 C 60.710938 61.328125 60.578125 61.976562 60.578125 62.652344 C 60.578125 63.324219 60.710938 63.972656 60.96875 64.597656 C 61.226562 65.222656 61.59375 65.769531 62.070312 66.25 C 62.546875 66.726562 63.097656 67.09375 63.71875 67.351562 C 64.34375 67.609375 64.992188 67.738281 65.667969 67.738281 C 66.34375 67.738281 66.992188 67.609375 67.613281 67.351562 C 68.238281 67.09375 68.789062 66.726562 69.265625 66.25 C 69.742188 65.769531 70.109375 65.222656 70.367188 64.597656 C 70.625 63.972656 70.753906 63.324219 70.753906 62.652344 C 70.753906 61.976562 70.625 61.328125 70.367188 60.703125 C 70.109375 60.082031 69.742188 59.53125 69.265625 59.054688 C 68.789062 58.578125 68.238281 58.207031 67.613281 57.949219 C 66.992188 57.691406 66.34375 57.5625 65.667969 57.5625 Z M 65.667969 57.5625 " clip-rule="nonzero"/></clipPath><clipPath id="9ae2dfe47d"><path d="M 61.25 58.234375 L 70.082031 58.234375 L 70.082031 67.066406 L 61.25 67.066406 Z M 61.25 58.234375 " clip-rule="nonzero"/></clipPath><clipPath id="ca404ef2d6"><path d="M 65.667969 58.238281 C 65.082031 58.238281 64.519531 58.347656 63.976562 58.574219 C 63.4375 58.796875 62.960938 59.117188 62.546875 59.53125 C 62.132812 59.945312 61.8125 60.421875 61.589844 60.960938 C 61.367188 61.503906 61.253906 62.066406 61.253906 62.652344 C 61.253906 63.234375 61.367188 63.800781 61.589844 64.339844 C 61.8125 64.878906 62.132812 65.359375 62.546875 65.773438 C 62.960938 66.1875 63.4375 66.503906 63.976562 66.730469 C 64.519531 66.953125 65.082031 67.066406 65.667969 67.066406 C 66.253906 67.066406 66.816406 66.953125 67.355469 66.730469 C 67.898438 66.503906 68.375 66.1875 68.789062 65.773438 C 69.203125 65.359375 69.523438 64.878906 69.746094 64.339844 C 69.96875 63.800781 70.082031 63.234375 70.082031 62.652344 C 70.082031 62.066406 69.96875 61.503906 69.746094 60.960938 C 69.523438 60.421875 69.203125 59.945312 68.789062 59.53125 C 68.375 59.117188 67.898438 58.796875 67.355469 58.574219 C 66.816406 58.347656 66.253906 58.238281 65.667969 58.238281 Z M 65.667969 58.238281 " clip-rule="nonzero"/></clipPath><clipPath id="86c76c4ee2"><path d="M 87.4375 10.0625 L 97.613281 10.0625 L 97.613281 20.238281 L 87.4375 20.238281 Z M 87.4375 10.0625 " clip-rule="nonzero"/></clipPath><clipPath id="075ec95367"><path d="M 92.527344 10.0625 C 91.851562 10.0625 91.203125 10.191406 90.578125 10.449219 C 89.957031 10.707031 89.40625 11.074219 88.929688 11.550781 C 88.449219 12.027344 88.082031 12.578125 87.824219 13.203125 C 87.566406 13.824219 87.4375 14.476562 87.4375 15.148438 C 87.4375 15.824219 87.566406 16.472656 87.824219 17.097656 C 88.082031 17.71875 88.449219 18.269531 88.929688 18.746094 C 89.40625 19.222656 89.957031 19.589844 90.578125 19.851562 C 91.203125 20.109375 91.851562 20.238281 92.527344 20.238281 C 93.199219 20.238281 93.847656 20.109375 94.472656 19.851562 C 95.097656 19.589844 95.644531 19.222656 96.125 18.746094 C 96.601562 18.269531 96.96875 17.71875 97.226562 17.097656 C 97.484375 16.472656 97.613281 15.824219 97.613281 15.148438 C 97.613281 14.476562 97.484375 13.824219 97.226562 13.203125 C 96.96875 12.578125 96.601562 12.027344 96.125 11.550781 C 95.644531 11.074219 95.097656 10.707031 94.472656 10.449219 C 93.847656 10.191406 93.199219 10.0625 92.527344 10.0625 Z M 92.527344 10.0625 " clip-rule="nonzero"/></clipPath><clipPath id="3b93f2a5f0"><path d="M 88.109375 10.734375 L 96.941406 10.734375 L 96.941406 19.566406 L 88.109375 19.566406 Z M 88.109375 10.734375 " clip-rule="nonzero"/></clipPath><clipPath id="aa0d568cf3"><path d="M 92.527344 10.734375 C 91.941406 10.734375 91.378906 10.847656 90.835938 11.070312 C 90.296875 11.296875 89.816406 11.613281 89.402344 12.027344 C 88.992188 12.441406 88.671875 12.917969 88.449219 13.460938 C 88.222656 14 88.113281 14.5625 88.113281 15.148438 C 88.113281 15.734375 88.222656 16.296875 88.449219 16.839844 C 88.671875 17.378906 88.992188 17.855469 89.402344 18.269531 C 89.816406 18.683594 90.296875 19.003906 90.835938 19.226562 C 91.378906 19.453125 91.941406 19.5625 92.527344 19.5625 C 93.109375 19.5625 93.675781 19.453125 94.214844 19.226562 C 94.753906 19.003906 95.234375 18.683594 95.648438 18.269531 C 96.0625 17.855469 96.378906 17.378906 96.605469 16.839844 C 96.828125 16.296875 96.941406 15.734375 96.941406 15.148438 C 96.941406 14.5625 96.828125 14 96.605469 13.460938 C 96.378906 12.917969 96.0625 12.441406 95.648438 12.027344 C 95.234375 11.613281 94.753906 11.296875 94.214844 11.070312 C 93.675781 10.847656 93.109375 10.734375 92.527344 10.734375 Z M 92.527344 10.734375 " clip-rule="nonzero"/></clipPath><clipPath id="e13432c040"><path d="M 203.078125 105.066406 L 213.253906 105.066406 L 213.253906 115.238281 L 203.078125 115.238281 Z M 203.078125 105.066406 " clip-rule="nonzero"/></clipPath><clipPath id="1b316cd910"><path d="M 208.167969 105.066406 C 207.492188 105.066406 206.84375 105.195312 206.21875 105.453125 C 205.597656 105.710938 205.046875 106.078125 204.570312 106.554688 C 204.09375 107.03125 203.722656 107.582031 203.464844 108.207031 C 203.207031 108.828125 203.078125 109.476562 203.078125 110.152344 C 203.078125 110.828125 203.207031 111.476562 203.464844 112.097656 C 203.722656 112.722656 204.09375 113.273438 204.570312 113.75 C 205.046875 114.226562 205.597656 114.59375 206.21875 114.851562 C 206.84375 115.109375 207.492188 115.238281 208.167969 115.238281 C 208.839844 115.238281 209.488281 115.109375 210.113281 114.851562 C 210.738281 114.59375 211.285156 114.226562 211.765625 113.75 C 212.242188 113.273438 212.609375 112.722656 212.867188 112.097656 C 213.125 111.476562 213.253906 110.828125 213.253906 110.152344 C 213.253906 109.476562 213.125 108.828125 212.867188 108.207031 C 212.609375 107.582031 212.242188 107.03125 211.765625 106.554688 C 211.285156 106.078125 210.738281 105.710938 210.113281 105.453125 C 209.488281 105.195312 208.839844 105.066406 208.167969 105.066406 Z M 208.167969 105.066406 " clip-rule="nonzero"/></clipPath><clipPath id="dcf6aa183b"><path d="M 203.75 105.734375 L 212.582031 105.734375 L 212.582031 114.570312 L 203.75 114.570312 Z M 203.75 105.734375 " clip-rule="nonzero"/></clipPath><clipPath id="b3eb3d62ee"><path d="M 208.167969 105.738281 C 207.582031 105.738281 207.019531 105.851562 206.476562 106.074219 C 205.9375 106.296875 205.460938 106.617188 205.046875 107.03125 C 204.632812 107.445312 204.3125 107.921875 204.089844 108.464844 C 203.863281 109.003906 203.753906 109.566406 203.753906 110.152344 C 203.753906 110.738281 203.863281 111.300781 204.089844 111.839844 C 204.3125 112.382812 204.632812 112.859375 205.046875 113.273438 C 205.460938 113.6875 205.9375 114.007812 206.476562 114.230469 C 207.019531 114.453125 207.582031 114.566406 208.167969 114.566406 C 208.75 114.566406 209.316406 114.453125 209.855469 114.230469 C 210.398438 114.007812 210.875 113.6875 211.289062 113.273438 C 211.703125 112.859375 212.019531 112.382812 212.246094 111.839844 C 212.46875 111.300781 212.582031 110.738281 212.582031 110.152344 C 212.582031 109.566406 212.46875 109.003906 212.246094 108.464844 C 212.019531 107.921875 211.703125 107.445312 211.289062 107.03125 C 210.875 106.617188 210.398438 106.296875 209.855469 106.074219 C 209.316406 105.851562 208.75 105.738281 208.167969 105.738281 Z M 208.167969 105.738281 " clip-rule="nonzero"/></clipPath><clipPath id="1b07c92e68"><path d="M 86.109375 67.738281 L 98.945312 67.738281 L 98.945312 80.574219 L 86.109375 80.574219 Z M 86.109375 67.738281 " clip-rule="nonzero"/></clipPath><clipPath id="d5780e63bb"><path d="M 92.527344 67.738281 C 91.675781 67.738281 90.855469 67.902344 90.070312 68.226562 C 89.28125 68.554688 88.589844 69.015625 87.988281 69.617188 C 87.386719 70.21875 86.921875 70.914062 86.597656 71.699219 C 86.269531 72.488281 86.109375 73.304688 86.109375 74.15625 C 86.109375 75.007812 86.269531 75.828125 86.597656 76.613281 C 86.921875 77.398438 87.386719 78.09375 87.988281 78.695312 C 88.589844 79.296875 89.28125 79.761719 90.070312 80.085938 C 90.855469 80.410156 91.675781 80.574219 92.527344 80.574219 C 93.375 80.574219 94.195312 80.410156 94.980469 80.085938 C 95.769531 79.761719 96.460938 79.296875 97.0625 78.695312 C 97.664062 78.09375 98.128906 77.398438 98.457031 76.613281 C 98.78125 75.828125 98.945312 75.007812 98.945312 74.15625 C 98.945312 73.304688 98.78125 72.488281 98.457031 71.699219 C 98.128906 70.914062 97.664062 70.21875 97.0625 69.617188 C 96.460938 69.015625 95.769531 68.554688 94.980469 68.226562 C 94.195312 67.902344 93.375 67.738281 92.527344 67.738281 Z M 92.527344 67.738281 " clip-rule="nonzero"/></clipPath><clipPath id="6c13f8fc48"><path d="M 86.953125 68.585938 L 98.097656 68.585938 L 98.097656 79.726562 L 86.953125 79.726562 Z M 86.953125 68.585938 " clip-rule="nonzero"/></clipPath><clipPath id="ce8ed2a641"><path d="M 92.527344 68.589844 C 91.789062 68.589844 91.078125 68.730469 90.394531 69.011719 C 89.710938 69.292969 89.109375 69.695312 88.589844 70.21875 C 88.066406 70.742188 87.664062 71.34375 87.382812 72.027344 C 87.097656 72.707031 86.957031 73.417969 86.957031 74.15625 C 86.957031 74.894531 87.097656 75.605469 87.382812 76.289062 C 87.664062 76.96875 88.066406 77.570312 88.589844 78.09375 C 89.109375 78.617188 89.710938 79.019531 90.394531 79.300781 C 91.078125 79.582031 91.789062 79.726562 92.527344 79.726562 C 93.265625 79.726562 93.972656 79.582031 94.65625 79.300781 C 95.339844 79.019531 95.941406 78.617188 96.464844 78.09375 C 96.984375 77.570312 97.386719 76.96875 97.671875 76.289062 C 97.953125 75.605469 98.09375 74.894531 98.09375 74.15625 C 98.09375 73.417969 97.953125 72.707031 97.671875 72.027344 C 97.386719 71.34375 96.984375 70.742188 96.464844 70.21875 C 95.941406 69.695312 95.339844 69.292969 94.65625 69.011719 C 93.972656 68.730469 93.265625 68.589844 92.527344 68.589844 Z M 92.527344 68.589844 " clip-rule="nonzero"/></clipPath><clipPath id="a157c43a93"><path d="M 177.902344 86.660156 L 188.078125 86.660156 L 188.078125 96.835938 L 177.902344 96.835938 Z M 177.902344 86.660156 " clip-rule="nonzero"/></clipPath><clipPath id="94f74190bc"><path d="M 182.988281 86.660156 C 182.3125 86.660156 181.664062 86.789062 181.042969 87.046875 C 180.417969 87.308594 179.867188 87.675781 179.390625 88.152344 C 178.914062 88.628906 178.546875 89.179688 178.289062 89.800781 C 178.03125 90.425781 177.902344 91.074219 177.902344 91.75 C 177.902344 92.425781 178.03125 93.074219 178.289062 93.695312 C 178.546875 94.320312 178.914062 94.871094 179.390625 95.347656 C 179.867188 95.824219 180.417969 96.191406 181.042969 96.449219 C 181.664062 96.707031 182.3125 96.835938 182.988281 96.835938 C 183.664062 96.835938 184.3125 96.707031 184.9375 96.449219 C 185.558594 96.191406 186.109375 95.824219 186.585938 95.347656 C 187.0625 94.871094 187.429688 94.320312 187.691406 93.695312 C 187.949219 93.074219 188.078125 92.425781 188.078125 91.75 C 188.078125 91.074219 187.949219 90.425781 187.691406 89.800781 C 187.429688 89.179688 187.0625 88.628906 186.585938 88.152344 C 186.109375 87.675781 185.558594 87.308594 184.9375 87.046875 C 184.3125 86.789062 183.664062 86.660156 182.988281 86.660156 Z M 182.988281 86.660156 " clip-rule="nonzero"/></clipPath><clipPath id="02a5ab728f"><path d="M 178.574219 87.332031 L 187.40625 87.332031 L 187.40625 96.164062 L 178.574219 96.164062 Z M 178.574219 87.332031 " clip-rule="nonzero"/></clipPath><clipPath id="4229c43299"><path d="M 182.988281 87.335938 C 182.402344 87.335938 181.839844 87.445312 181.300781 87.671875 C 180.757812 87.894531 180.28125 88.214844 179.867188 88.628906 C 179.453125 89.042969 179.136719 89.519531 178.910156 90.058594 C 178.6875 90.601562 178.574219 91.164062 178.574219 91.75 C 178.574219 92.335938 178.6875 92.898438 178.910156 93.4375 C 179.136719 93.980469 179.453125 94.457031 179.867188 94.871094 C 180.28125 95.285156 180.757812 95.601562 181.300781 95.828125 C 181.839844 96.050781 182.402344 96.164062 182.988281 96.164062 C 183.574219 96.164062 184.136719 96.050781 184.679688 95.828125 C 185.21875 95.601562 185.695312 95.285156 186.109375 94.871094 C 186.523438 94.457031 186.84375 93.980469 187.066406 93.4375 C 187.292969 92.898438 187.402344 92.335938 187.402344 91.75 C 187.402344 91.164062 187.292969 90.601562 187.066406 90.058594 C 186.84375 89.519531 186.523438 89.042969 186.109375 88.628906 C 185.695312 88.214844 185.21875 87.894531 184.679688 87.671875 C 184.136719 87.445312 183.574219 87.335938 182.988281 87.335938 Z M 182.988281 87.335938 " clip-rule="nonzero"/></clipPath><clipPath id="a4c4d0a00d"><path d="M 201.75 51.144531 L 214.585938 51.144531 L 214.585938 63.980469 L 201.75 63.980469 Z M 201.75 51.144531 " clip-rule="nonzero"/></clipPath><clipPath id="c76ebb7c50"><path d="M 208.167969 51.144531 C 207.316406 51.144531 206.496094 51.308594 205.710938 51.632812 C 204.925781 51.960938 204.230469 52.421875 203.628906 53.023438 C 203.027344 53.625 202.5625 54.320312 202.238281 55.105469 C 201.910156 55.894531 201.75 56.710938 201.75 57.5625 C 201.75 58.414062 201.910156 59.234375 202.238281 60.019531 C 202.5625 60.804688 203.027344 61.5 203.628906 62.101562 C 204.230469 62.703125 204.925781 63.167969 205.710938 63.492188 C 206.496094 63.816406 207.316406 63.980469 208.167969 63.980469 C 209.019531 63.980469 209.835938 63.816406 210.621094 63.492188 C 211.410156 63.167969 212.101562 62.703125 212.703125 62.101562 C 213.304688 61.5 213.769531 60.804688 214.097656 60.019531 C 214.421875 59.234375 214.585938 58.414062 214.585938 57.5625 C 214.585938 56.710938 214.421875 55.894531 214.097656 55.105469 C 213.769531 54.320312 213.304688 53.625 212.703125 53.023438 C 212.101562 52.421875 211.410156 51.960938 210.621094 51.632812 C 209.835938 51.308594 209.019531 51.144531 208.167969 51.144531 Z M 208.167969 51.144531 " clip-rule="nonzero"/></clipPath><clipPath id="15da86a0f4"><path d="M 202.59375 51.992188 L 213.738281 51.992188 L 213.738281 63.132812 L 202.59375 63.132812 Z M 202.59375 51.992188 " clip-rule="nonzero"/></clipPath><clipPath id="6eb28170b4"><path d="M 208.167969 51.996094 C 207.429688 51.996094 206.71875 52.136719 206.035156 52.417969 C 205.351562 52.703125 204.75 53.105469 204.230469 53.625 C 203.707031 54.148438 203.304688 54.75 203.023438 55.433594 C 202.738281 56.113281 202.597656 56.824219 202.597656 57.5625 C 202.597656 58.300781 202.738281 59.011719 203.023438 59.695312 C 203.304688 60.375 203.707031 60.976562 204.230469 61.5 C 204.75 62.023438 205.351562 62.425781 206.035156 62.707031 C 206.71875 62.988281 207.429688 63.132812 208.167969 63.132812 C 208.90625 63.132812 209.613281 62.988281 210.296875 62.707031 C 210.980469 62.425781 211.582031 62.023438 212.105469 61.5 C 212.625 60.976562 213.027344 60.375 213.3125 59.695312 C 213.59375 59.011719 213.734375 58.300781 213.734375 57.5625 C 213.734375 56.824219 213.59375 56.113281 213.3125 55.433594 C 213.027344 54.75 212.625 54.148438 212.105469 53.625 C 211.582031 53.105469 210.980469 52.703125 210.296875 52.417969 C 209.613281 52.136719 208.90625 51.996094 208.167969 51.996094 Z M 208.167969 51.996094 " clip-rule="nonzero"/></clipPath><clipPath id="6125373357"><path d="M 233.355469 78.257812 L 243.53125 78.257812 L 243.53125 88.433594 L 233.355469 88.433594 Z M 233.355469 78.257812 " clip-rule="nonzero"/></clipPath><clipPath id="882d251d72"><path d="M 238.445312 78.257812 C 237.769531 78.257812 237.121094 78.386719 236.496094 78.648438 C 235.875 78.90625 235.324219 79.273438 234.847656 79.75 C 234.367188 80.226562 234 80.777344 233.742188 81.398438 C 233.484375 82.023438 233.355469 82.671875 233.355469 83.347656 C 233.355469 84.023438 233.484375 84.671875 233.742188 85.292969 C 234 85.917969 234.367188 86.46875 234.847656 86.945312 C 235.324219 87.421875 235.875 87.789062 236.496094 88.046875 C 237.121094 88.304688 237.769531 88.433594 238.445312 88.433594 C 239.117188 88.433594 239.765625 88.304688 240.390625 88.046875 C 241.015625 87.789062 241.5625 87.421875 242.042969 86.945312 C 242.519531 86.46875 242.886719 85.917969 243.144531 85.292969 C 243.402344 84.671875 243.53125 84.023438 243.53125 83.347656 C 243.53125 82.671875 243.402344 82.023438 243.144531 81.398438 C 242.886719 80.777344 242.519531 80.226562 242.042969 79.75 C 241.5625 79.273438 241.015625 78.90625 240.390625 78.648438 C 239.765625 78.386719 239.117188 78.257812 238.445312 78.257812 Z M 238.445312 78.257812 " clip-rule="nonzero"/></clipPath><clipPath id="ac26c89474"><path d="M 234.027344 78.929688 L 242.859375 78.929688 L 242.859375 87.761719 L 234.027344 87.761719 Z M 234.027344 78.929688 " clip-rule="nonzero"/></clipPath><clipPath id="7306146636"><path d="M 238.445312 78.933594 C 237.859375 78.933594 237.296875 79.046875 236.753906 79.269531 C 236.214844 79.492188 235.734375 79.8125 235.320312 80.226562 C 234.910156 80.640625 234.589844 81.117188 234.367188 81.65625 C 234.140625 82.199219 234.03125 82.761719 234.03125 83.347656 C 234.03125 83.933594 234.140625 84.496094 234.367188 85.035156 C 234.589844 85.578125 234.910156 86.054688 235.320312 86.46875 C 235.734375 86.882812 236.214844 87.203125 236.753906 87.425781 C 237.296875 87.648438 237.859375 87.761719 238.445312 87.761719 C 239.027344 87.761719 239.59375 87.648438 240.132812 87.425781 C 240.671875 87.203125 241.152344 86.882812 241.566406 86.46875 C 241.980469 86.054688 242.296875 85.578125 242.523438 85.035156 C 242.746094 84.496094 242.859375 83.933594 242.859375 83.347656 C 242.859375 82.761719 242.746094 82.199219 242.523438 81.65625 C 242.296875 81.117188 241.980469 80.640625 241.566406 80.226562 C 241.152344 79.8125 240.671875 79.492188 240.132812 79.269531 C 239.59375 79.046875 239.027344 78.933594 238.445312 78.933594 Z M 238.445312 78.933594 " clip-rule="nonzero"/></clipPath><clipPath id="a65523f1df"><path d="M 79 0.144531 L 86 0.144531 L 86 8 L 79 8 Z M 79 0.144531 " clip-rule="nonzero"/></clipPath><clipPath id="f955563d52"><path d="M 85 0.144531 L 89 0.144531 L 89 8 L 85 8 Z M 85 0.144531 " clip-rule="nonzero"/></clipPath><clipPath id="918b29f01a"><path d="M 89 0.144531 L 93 0.144531 L 93 8 L 89 8 Z M 89 0.144531 " clip-rule="nonzero"/></clipPath><clipPath id="4b73cc25d8"><path d="M 98 0.144531 L 104 0.144531 L 104 8 L 98 8 Z M 98 0.144531 " clip-rule="nonzero"/></clipPath><clipPath id="291efc2c33"><path d="M 104 0.144531 L 106 0.144531 L 106 8 L 104 8 Z M 104 0.144531 " clip-rule="nonzero"/></clipPath><clipPath id="7e4b9c0214"><path d="M 30.390625 34.753906 L 40.566406 34.753906 L 40.566406 44.929688 L 30.390625 44.929688 Z M 30.390625 34.753906 " clip-rule="nonzero"/></clipPath><clipPath id="147c50ca8d"><path d="M 35.476562 34.753906 C 34.800781 34.753906 34.152344 34.882812 33.53125 35.140625 C 32.90625 35.398438 32.355469 35.765625 31.878906 36.242188 C 31.402344 36.71875 31.035156 37.269531 30.777344 37.894531 C 30.519531 38.515625 30.390625 39.167969 30.390625 39.839844 C 30.390625 40.515625 30.519531 41.164062 30.777344 41.789062 C 31.035156 42.410156 31.402344 42.960938 31.878906 43.4375 C 32.355469 43.914062 32.90625 44.285156 33.53125 44.542969 C 34.152344 44.800781 34.800781 44.929688 35.476562 44.929688 C 36.152344 44.929688 36.800781 44.800781 37.425781 44.542969 C 38.046875 44.285156 38.597656 43.914062 39.074219 43.4375 C 39.550781 42.960938 39.917969 42.410156 40.175781 41.789062 C 40.433594 41.164062 40.566406 40.515625 40.566406 39.839844 C 40.566406 39.167969 40.433594 38.515625 40.175781 37.894531 C 39.917969 37.269531 39.550781 36.71875 39.074219 36.242188 C 38.597656 35.765625 38.046875 35.398438 37.425781 35.140625 C 36.800781 34.882812 36.152344 34.753906 35.476562 34.753906 Z M 35.476562 34.753906 " clip-rule="nonzero"/></clipPath><clipPath id="2709210123"><path d="M 31.0625 35.425781 L 39.894531 35.425781 L 39.894531 44.257812 L 31.0625 44.257812 Z M 31.0625 35.425781 " clip-rule="nonzero"/></clipPath><clipPath id="6815ce12f6"><path d="M 35.476562 35.425781 C 34.890625 35.425781 34.328125 35.539062 33.789062 35.761719 C 33.246094 35.988281 32.769531 36.304688 32.355469 36.71875 C 31.941406 37.132812 31.621094 37.609375 31.398438 38.152344 C 31.175781 38.691406 31.0625 39.253906 31.0625 39.839844 C 31.0625 40.425781 31.175781 40.988281 31.398438 41.53125 C 31.621094 42.070312 31.941406 42.546875 32.355469 42.960938 C 32.769531 43.375 33.246094 43.695312 33.789062 43.917969 C 34.328125 44.144531 34.890625 44.253906 35.476562 44.253906 C 36.0625 44.253906 36.625 44.144531 37.167969 43.917969 C 37.707031 43.695312 38.183594 43.375 38.597656 42.960938 C 39.011719 42.546875 39.332031 42.070312 39.554688 41.53125 C 39.777344 40.988281 39.890625 40.425781 39.890625 39.839844 C 39.890625 39.253906 39.777344 38.691406 39.554688 38.152344 C 39.332031 37.609375 39.011719 37.132812 38.597656 36.71875 C 38.183594 36.304688 37.707031 35.988281 37.167969 35.761719 C 36.625 35.539062 36.0625 35.425781 35.476562 35.425781 Z M 35.476562 35.425781 " clip-rule="nonzero"/></clipPath></defs><path fill="#3c52a9" d="M 185.625 92.570312 C 185.628906 92.296875 185.59375 92.03125 185.519531 91.777344 C 184.371094 87.753906 183.59375 83.652344 183.59375 79.5 L 183.59375 76.6875 C 183.59375 71.15625 184.496094 65.617188 186.695312 60.445312 C 186.929688 59.890625 187.039062 59.28125 186.996094 58.644531 C 186.847656 56.492188 184.890625 54.742188 182.46875 54.601562 C 179.636719 54.4375 177.28125 56.433594 177.28125 58.917969 C 177.28125 59.472656 177.398438 60 177.613281 60.488281 C 179.78125 65.429688 180.695312 70.738281 180.695312 76.042969 L 180.695312 79.308594 C 180.695312 83.476562 180.171875 87.652344 178.808594 91.640625 C 178.710938 91.925781 178.660156 92.226562 178.660156 92.539062 C 178.660156 94.308594 180.324219 95.730469 182.339844 95.632812 C 184.152344 95.546875 185.609375 94.1875 185.625 92.570312 " fill-opacity="1" fill-rule="nonzero"/><g clip-path="url(#baa9c98238)"><path fill="#3c52a9" d="M 211.011719 112.101562 C 211.042969 111.648438 210.992188 111.210938 210.875 110.808594 C 209.449219 105.898438 208.90625 100.722656 208.90625 95.558594 L 208.90625 78.121094 C 208.90625 72.269531 209.578125 66.40625 211.304688 60.882812 C 211.429688 60.480469 211.5 60.046875 211.496094 59.59375 C 211.488281 57.5625 210.027344 55.847656 208.203125 55.738281 C 206.195312 55.621094 204.53125 57.398438 204.53125 59.609375 C 204.53125 60.003906 204.582031 60.378906 204.679688 60.734375 C 206.042969 65.726562 206.566406 70.949219 206.566406 76.164062 L 206.566406 99.222656 C 206.566406 103.214844 205.96875 107.15625 205.097656 111.027344 C 205.039062 111.289062 205.007812 111.558594 205.007812 111.839844 C 205.007812 113.816406 206.542969 115.390625 208.355469 115.167969 C 209.777344 114.992188 210.90625 113.683594 211.011719 112.101562 " fill-opacity="1" fill-rule="nonzero"/></g><path fill="#3c52a9" d="M 226.398438 99.066406 C 226.421875 98.882812 226.402344 98.703125 226.347656 98.535156 C 225.867188 97.105469 225.527344 95.652344 225.527344 94.175781 L 225.527344 79.847656 C 225.527344 77.539062 226.082031 75.253906 227.152344 73.105469 C 227.324219 72.765625 227.390625 72.382812 227.320312 71.984375 C 227.152344 71 226.136719 70.21875 224.894531 70.109375 C 223.226562 69.960938 221.8125 70.996094 221.8125 72.296875 C 221.8125 72.582031 221.878906 72.855469 222.003906 73.105469 C 223 75.109375 223.632812 77.21875 223.632812 79.375 L 223.632812 93.703125 C 223.632812 95.316406 223.4375 96.9375 222.832031 98.476562 C 222.777344 98.613281 222.75 98.761719 222.75 98.910156 C 222.75 99.769531 223.683594 100.457031 224.789062 100.359375 C 225.628906 100.285156 226.3125 99.738281 226.398438 99.066406 " fill-opacity="1" fill-rule="nonzero"/><path fill="#3c52a9" d="M 128.097656 72.253906 C 128.226562 70.75 127.792969 69.347656 126.988281 68.238281 C 124.871094 65.324219 123.632812 61.859375 123.632812 58.257812 L 123.632812 46.195312 C 123.632812 43.332031 124.488281 40.558594 125.9375 38.089844 C 126.351562 37.386719 126.570312 36.554688 126.527344 35.671875 C 126.417969 33.480469 124.648438 31.683594 122.457031 31.546875 C 119.929688 31.390625 117.828125 33.398438 117.828125 35.890625 C 117.828125 36.679688 118.039062 37.421875 118.40625 38.058594 C 119.859375 40.585938 120.726562 43.410156 120.726562 46.324219 L 120.726562 58.257812 C 120.726562 61.863281 119.492188 65.324219 117.371094 68.242188 C 116.660156 69.21875 116.242188 70.425781 116.242188 71.726562 C 116.242188 75.144531 119.132812 77.890625 122.601562 77.652344 C 125.492188 77.453125 127.847656 75.136719 128.097656 72.253906 " fill-opacity="1" fill-rule="nonzero"/><g clip-path="url(#4a5e0553d2)"><path fill="#3c52a9" d="M 98.039062 74.578125 C 98.101562 73.238281 97.808594 71.988281 97.265625 70.945312 C 95.3125 67.210938 94.398438 62.820312 94.398438 58.40625 L 94.398438 26.394531 C 94.398438 23.027344 94.945312 19.664062 96.183594 16.648438 C 96.480469 15.925781 96.617188 15.09375 96.53125 14.214844 C 96.347656 12.214844 95.011719 10.609375 93.359375 10.390625 C 91.179688 10.097656 89.335938 12.148438 89.335938 14.71875 C 89.335938 15.34375 89.445312 15.933594 89.640625 16.46875 C 90.785156 19.605469 91.496094 22.949219 91.496094 26.375 L 91.496094 58.324219 C 91.496094 62.773438 90.570312 67.191406 88.617188 70.964844 C 88.128906 71.910156 87.84375 73.023438 87.84375 74.21875 C 87.84375 77.753906 90.316406 80.59375 93.285156 80.359375 C 95.835938 80.160156 97.894531 77.652344 98.039062 74.578125 " fill-opacity="1" fill-rule="nonzero"/></g><path fill="#3c52a9" d="M 70.214844 62.261719 C 70.269531 61.347656 70.015625 60.496094 69.550781 59.796875 C 68.269531 57.878906 67.664062 55.589844 67.664062 53.28125 L 67.664062 35.550781 C 67.664062 33.570312 68.105469 31.601562 69.066406 29.875 C 69.378906 29.304688 69.53125 28.632812 69.449219 27.921875 C 69.285156 26.429688 68.078125 25.226562 66.585938 25.058594 C 64.617188 24.84375 62.953125 26.375 62.953125 28.296875 C 62.953125 28.875 63.101562 29.414062 63.363281 29.882812 C 64.332031 31.609375 64.761719 33.585938 64.761719 35.5625 L 64.761719 53.414062 C 64.761719 55.71875 64.035156 57.945312 62.8125 59.898438 C 62.425781 60.511719 62.203125 61.242188 62.203125 62.019531 C 62.203125 64.320312 64.140625 66.167969 66.46875 66.023438 C 68.472656 65.898438 70.097656 64.265625 70.214844 62.261719 " fill-opacity="1" fill-rule="nonzero"/><path fill="#3c52a9" d="M 237.945312 87.101562 C 235.914062 87.101562 234.269531 85.457031 234.269531 83.425781 C 234.269531 81.394531 235.914062 79.75 237.945312 79.75 C 239.976562 79.75 241.621094 81.394531 241.621094 83.425781 C 241.621094 85.457031 239.976562 87.101562 237.945312 87.101562 " fill-opacity="1" fill-rule="nonzero"/><g clip-path="url(#3710ed8712)"><path fill="#3c52a9" d="M 249.640625 94.085938 C 247.980469 94.085938 246.632812 92.738281 246.632812 91.078125 C 246.632812 89.417969 247.980469 88.070312 249.640625 88.070312 C 251.300781 88.070312 252.648438 89.417969 252.648438 91.078125 C 252.648438 92.738281 251.300781 94.085938 249.640625 94.085938 " fill-opacity="1" fill-rule="nonzero"/></g><path fill="#3c52a9" d="M 193.722656 45.472656 C 167.089844 41.527344 157.292969 70.574219 139.070312 83.773438 C 129.398438 90.777344 116.664062 94.019531 104.929688 91.246094 C 115.132812 90.21875 125.046875 86.785156 133.25 80.542969 C 150.539062 67.382812 166.859375 31.671875 193.722656 45.472656 " fill-opacity="1" fill-rule="nonzero"/><path fill="#3c52a9" d="M 47.972656 55.734375 C 45.378906 55.734375 43.277344 53.632812 43.277344 51.035156 C 43.277344 48.441406 45.378906 46.339844 47.972656 46.339844 C 50.570312 46.339844 52.671875 48.441406 52.671875 51.035156 C 52.671875 53.632812 50.570312 55.734375 47.972656 55.734375 " fill-opacity="1" fill-rule="nonzero"/><g clip-path="url(#bcd8538da5)"><path fill="#3c52a9" d="M 33.742188 44.03125 C 31.886719 44.03125 30.382812 42.527344 30.382812 40.671875 C 30.382812 38.8125 31.886719 37.308594 33.742188 37.308594 C 35.597656 37.308594 37.105469 38.8125 37.105469 40.671875 C 37.105469 42.527344 35.597656 44.03125 33.742188 44.03125 " fill-opacity="1" fill-rule="nonzero"/></g><g clip-path="url(#6c65d5b32d)"><g clip-path="url(#aa672e203f)"><path fill="#af1ca9" d="M 60.578125 57.5625 L 70.753906 57.5625 L 70.753906 67.738281 L 60.578125 67.738281 Z M 60.578125 57.5625 " fill-opacity="1" fill-rule="nonzero"/></g></g><g clip-path="url(#9ae2dfe47d)"><g clip-path="url(#ca404ef2d6)"><path fill="#ffffff" d="M 60.578125 57.5625 L 70.753906 57.5625 L 70.753906 67.738281 L 60.578125 67.738281 Z M 60.578125 57.5625 " fill-opacity="1" fill-rule="nonzero"/></g></g><g clip-path="url(#86c76c4ee2)"><g clip-path="url(#075ec95367)"><path fill="#1caf71" d="M 87.4375 10.0625 L 97.613281 10.0625 L 97.613281 20.238281 L 87.4375 20.238281 Z M 87.4375 10.0625 " fill-opacity="1" fill-rule="nonzero"/></g></g><g clip-path="url(#3b93f2a5f0)"><g clip-path="url(#aa0d568cf3)"><path fill="#ffffff" d="M 87.4375 10.0625 L 97.613281 10.0625 L 97.613281 20.238281 L 87.4375 20.238281 Z M 87.4375 10.0625 " fill-opacity="1" fill-rule="nonzero"/></g></g><g clip-path="url(#e13432c040)"><g clip-path="url(#1b316cd910)"><path fill="#ff95ab" d="M 203.078125 105.066406 L 213.253906 105.066406 L 213.253906 115.238281 L 203.078125 115.238281 Z M 203.078125 105.066406 " fill-opacity="1" fill-rule="nonzero"/></g></g><g clip-path="url(#dcf6aa183b)"><g clip-path="url(#b3eb3d62ee)"><path fill="#ffffff" d="M 203.078125 105.066406 L 213.253906 105.066406 L 213.253906 115.238281 L 203.078125 115.238281 Z M 203.078125 105.066406 " fill-opacity="1" fill-rule="nonzero"/></g></g><g clip-path="url(#1b07c92e68)"><g clip-path="url(#d5780e63bb)"><path fill="#bfa100" d="M 86.109375 67.738281 L 98.945312 67.738281 L 98.945312 80.574219 L 86.109375 80.574219 Z M 86.109375 67.738281 " fill-opacity="1" fill-rule="nonzero"/></g></g><g clip-path="url(#6c13f8fc48)"><g clip-path="url(#ce8ed2a641)"><path fill="#ffffff" d="M 86.109375 67.738281 L 98.945312 67.738281 L 98.945312 80.574219 L 86.109375 80.574219 Z M 86.109375 67.738281 " fill-opacity="1" fill-rule="nonzero"/></g></g><g clip-path="url(#a157c43a93)"><g clip-path="url(#94f74190bc)"><path fill="#00e4bb" d="M 177.902344 86.660156 L 188.078125 86.660156 L 188.078125 96.835938 L 177.902344 96.835938 Z M 177.902344 86.660156 " fill-opacity="1" fill-rule="nonzero"/></g></g><g clip-path="url(#02a5ab728f)"><g clip-path="url(#4229c43299)"><path fill="#ffffff" d="M 177.902344 86.660156 L 188.078125 86.660156 L 188.078125 96.835938 L 177.902344 96.835938 Z M 177.902344 86.660156 " fill-opacity="1" fill-rule="nonzero"/></g></g><g clip-path="url(#a4c4d0a00d)"><g clip-path="url(#c76ebb7c50)"><path fill="#692900" d="M 201.75 51.144531 L 214.585938 51.144531 L 214.585938 63.980469 L 201.75 63.980469 Z M 201.75 51.144531 " fill-opacity="1" fill-rule="nonzero"/></g></g><g clip-path="url(#15da86a0f4)"><g clip-path="url(#6eb28170b4)"><path fill="#ffffff" d="M 201.75 51.144531 L 214.585938 51.144531 L 214.585938 63.980469 L 201.75 63.980469 Z M 201.75 51.144531 " fill-opacity="1" fill-rule="nonzero"/></g></g><g clip-path="url(#6125373357)"><g clip-path="url(#882d251d72)"><path fill="#1c81af" d="M 233.355469 78.257812 L 243.53125 78.257812 L 243.53125 88.433594 L 233.355469 88.433594 Z M 233.355469 78.257812 " fill-opacity="1" fill-rule="nonzero"/></g></g><g clip-path="url(#ac26c89474)"><g clip-path="url(#7306146636)"><path fill="#ffffff" d="M 233.355469 78.257812 L 243.53125 78.257812 L 243.53125 88.433594 L 233.355469 88.433594 Z M 233.355469 78.257812 " fill-opacity="1" fill-rule="nonzero"/></g></g><g fill="#ffffff" fill-opacity="1"><g transform="translate(78.981046, 88.907269)"><g><path d="M 7.03125 -1.625 C 7.03125 -2.351562 7.023438 -2.734375 7.015625 -2.765625 C 7.015625 -3.421875 6.820312 -3.9375 6.4375 -4.3125 C 6.0625 -4.6875 5.550781 -4.875 4.90625 -4.875 C 4.257812 -4.875 3.753906 -4.679688 3.390625 -4.296875 C 3.023438 -3.921875 2.84375 -3.398438 2.84375 -2.734375 C 2.84375 -2.066406 3.03125 -1.539062 3.40625 -1.15625 C 3.789062 -0.769531 4.300781 -0.578125 4.9375 -0.578125 C 5.300781 -0.578125 5.617188 -0.671875 5.890625 -0.859375 C 5.742188 -0.410156 5.460938 -0.046875 5.046875 0.234375 C 4.640625 0.515625 4.179688 0.65625 3.671875 0.65625 C 2.972656 0.65625 2.414062 0.4375 2 0 C 1.59375 -0.4375 1.390625 -1.019531 1.390625 -1.75 L 1.390625 -3.5 L 0.328125 -3.5 L 0.328125 -1.625 C 0.328125 -1.019531 0.472656 -0.46875 0.765625 0.03125 C 1.054688 0.539062 1.457031 0.941406 1.96875 1.234375 C 2.488281 1.523438 3.066406 1.671875 3.703125 1.671875 C 4.316406 1.671875 4.875 1.523438 5.375 1.234375 C 5.882812 0.941406 6.285156 0.539062 6.578125 0.03125 C 6.878906 -0.46875 7.03125 -1.019531 7.03125 -1.625 Z M 5.96875 -2.6875 C 5.96875 -2.320312 5.875 -2.019531 5.6875 -1.78125 C 5.5 -1.550781 5.25 -1.4375 4.9375 -1.4375 C 4.613281 -1.4375 4.359375 -1.554688 4.171875 -1.796875 C 3.984375 -2.046875 3.890625 -2.363281 3.890625 -2.75 C 3.890625 -3.125 3.988281 -3.4375 4.1875 -3.6875 C 4.382812 -3.9375 4.628906 -4.0625 4.921875 -4.0625 C 5.222656 -4.0625 5.472656 -3.929688 5.671875 -3.671875 C 5.867188 -3.421875 5.96875 -3.09375 5.96875 -2.6875 Z M 4.515625 -5.484375 L 4.515625 -6.609375 L 3.40625 -6.609375 L 3.40625 -5.484375 Z M 6.421875 -5.484375 L 6.421875 -6.609375 L 5.3125 -6.609375 L 5.3125 -5.484375 Z M 6.421875 -5.484375 "/></g></g></g><g fill="#ffffff" fill-opacity="1"><g transform="translate(86.325173, 88.907269)"><g><path d="M 7.140625 0 L 7.140625 -1.140625 L 5.390625 -1.140625 C 5.378906 -2.859375 4.703125 -3.945312 3.359375 -4.40625 C 3.117188 -4.488281 2.921875 -4.535156 2.765625 -4.546875 C 2.578125 -4.554688 2.226562 -4.5625 1.71875 -4.5625 L 1.71875 -3.53125 C 2.113281 -3.53125 2.453125 -3.5 2.734375 -3.4375 C 3.753906 -3.21875 4.265625 -2.453125 4.265625 -1.140625 L 0.625 -1.140625 L 0.625 0 Z M 7.140625 0 "/></g></g></g><g fill="#ffffff" fill-opacity="1"><g transform="translate(93.144364, 88.907269)"><g><path d="M 9.53125 0 L 9.53125 -1.140625 L 8.34375 -1.140625 C 8.320312 -3.429688 7.460938 -4.578125 5.765625 -4.578125 C 5.210938 -4.578125 4.671875 -4.410156 4.140625 -4.078125 C 3.609375 -3.753906 3.117188 -3.289062 2.671875 -2.6875 L 2.671875 -4.078125 L 1.546875 -4.078125 L 1.546875 -2.328125 C 1.546875 -1.535156 1.257812 -1.140625 0.6875 -1.140625 L -0.4375 -1.140625 L -0.4375 0 Z M 7.1875 -1.140625 L 2.703125 -1.140625 C 3.015625 -1.847656 3.441406 -2.429688 3.984375 -2.890625 C 4.535156 -3.347656 5.085938 -3.578125 5.640625 -3.578125 C 6.117188 -3.578125 6.5 -3.382812 6.78125 -3 C 7.0625 -2.625 7.203125 -2.113281 7.203125 -1.46875 Z M 7.1875 -1.140625 "/></g></g></g><g fill="#ffffff" fill-opacity="1"><g transform="translate(102.578401, 88.907269)"><g><path d="M 2.6875 -1.8125 L 2.6875 -6.484375 L 1.5625 -6.484375 L 1.5625 -2.203125 C 1.5625 -1.847656 1.535156 -1.609375 1.484375 -1.484375 C 1.367188 -1.253906 1.132812 -1.140625 0.78125 -1.140625 L -0.1875 -1.140625 L -0.1875 0 L 1 0 C 2.125 0 2.6875 -0.601562 2.6875 -1.8125 Z M 2.6875 -1.8125 "/></g></g></g><g fill="#ffffff" fill-opacity="1"><g transform="translate(105.590619, 88.907269)"><g><path d="M 1.828125 0 L 1.828125 -6.484375 L 0.71875 -6.484375 L 0.71875 0 Z M 1.828125 0 "/></g></g></g><g fill="#ffffff" fill-opacity="1"><g transform="translate(37.251336, 77.088651)"><g><path d="M 6.71875 0 L 6.71875 -1.140625 L 6.015625 -1.140625 C 5.253906 -1.140625 4.875 -1.539062 4.875 -2.34375 L 4.875 -5.53125 L 2.40625 -5.53125 C 1.757812 -5.53125 1.25 -5.3125 0.875 -4.875 C 0.507812 -4.4375 0.328125 -3.84375 0.328125 -3.09375 C 0.328125 -2.382812 0.515625 -1.8125 0.890625 -1.375 C 1.265625 -0.945312 1.769531 -0.734375 2.40625 -0.734375 C 2.90625 -0.734375 3.332031 -0.984375 3.6875 -1.484375 C 3.800781 -1.035156 4.023438 -0.675781 4.359375 -0.40625 C 4.691406 -0.132812 5.070312 0 5.5 0 Z M 3.71875 -3.203125 C 3.71875 -2.765625 3.609375 -2.398438 3.390625 -2.109375 C 3.179688 -1.816406 2.898438 -1.671875 2.546875 -1.671875 C 2.210938 -1.671875 1.941406 -1.804688 1.734375 -2.078125 C 1.535156 -2.359375 1.4375 -2.703125 1.4375 -3.109375 C 1.4375 -3.578125 1.550781 -3.953125 1.78125 -4.234375 C 2.007812 -4.515625 2.316406 -4.65625 2.703125 -4.65625 L 3.71875 -4.65625 Z M 2.890625 -6.34375 L 2.890625 -7.46875 L 1.796875 -7.46875 L 1.796875 -6.34375 Z M 4.796875 -6.34375 L 4.796875 -7.46875 L 3.6875 -7.46875 L 3.6875 -6.34375 Z M 4.796875 -6.34375 "/></g></g></g><g fill="#ffffff" fill-opacity="1"><g transform="translate(43.839956, 77.088651)"><g><path d="M 4.453125 0 L 4.453125 -1.140625 L 2.5625 -1.140625 C 2.726562 -1.328125 2.8125 -1.71875 2.8125 -2.3125 L 2.8125 -4.5625 L 1.703125 -4.5625 L 1.703125 -2.25 C 1.703125 -1.894531 1.660156 -1.640625 1.578125 -1.484375 C 1.453125 -1.253906 1.222656 -1.140625 0.890625 -1.140625 L -0.1875 -1.140625 L -0.1875 0 Z M 2.765625 2.203125 L 2.765625 1.078125 L 1.671875 1.078125 L 1.671875 2.203125 Z M 0.875 2.203125 L 0.875 1.078125 L -0.234375 1.078125 L -0.234375 2.203125 Z M 0.875 2.203125 "/></g></g></g><g fill="#ffffff" fill-opacity="1"><g transform="translate(48.176765, 77.088651)"><g><path d="M 2.6875 -1.8125 L 2.6875 -6.484375 L 1.5625 -6.484375 L 1.5625 -2.203125 C 1.5625 -1.847656 1.535156 -1.609375 1.484375 -1.484375 C 1.367188 -1.253906 1.132812 -1.140625 0.78125 -1.140625 L -0.1875 -1.140625 L -0.1875 0 L 1 0 C 2.125 0 2.6875 -0.601562 2.6875 -1.8125 Z M 2.6875 -1.8125 "/></g></g></g><g fill="#ffffff" fill-opacity="1"><g transform="translate(51.188983, 77.088651)"><g><path d="M 4.953125 -0.140625 L 4.953125 -2.265625 C 4.953125 -2.929688 4.753906 -3.484375 4.359375 -3.921875 C 3.960938 -4.359375 3.4375 -4.578125 2.78125 -4.578125 C 2.144531 -4.578125 1.625 -4.363281 1.21875 -3.9375 C 0.820312 -3.507812 0.625 -2.960938 0.625 -2.296875 C 0.625 -1.617188 0.820312 -1.066406 1.21875 -0.640625 C 1.613281 -0.210938 2.132812 0 2.78125 0 C 3.300781 0 3.65625 -0.171875 3.84375 -0.515625 C 3.832031 -0.109375 3.738281 0.203125 3.5625 0.421875 C 3.382812 0.640625 3.117188 0.753906 2.765625 0.765625 L 2.765625 1.65625 C 4.222656 1.65625 4.953125 1.054688 4.953125 -0.140625 Z M 3.796875 -2.234375 C 3.796875 -1.898438 3.695312 -1.613281 3.5 -1.375 C 3.3125 -1.132812 3.070312 -1.015625 2.78125 -1.015625 C 2.476562 -1.015625 2.226562 -1.132812 2.03125 -1.375 C 1.84375 -1.625 1.75 -1.929688 1.75 -2.296875 C 1.75 -2.640625 1.835938 -2.929688 2.015625 -3.171875 C 2.203125 -3.421875 2.441406 -3.546875 2.734375 -3.546875 C 3.054688 -3.546875 3.3125 -3.425781 3.5 -3.1875 C 3.695312 -2.945312 3.796875 -2.628906 3.796875 -2.234375 Z M 3.796875 -2.234375 "/></g></g></g><g fill="#ffffff" fill-opacity="1"><g transform="translate(56.462823, 77.088651)"><g><path d="M 3.78125 -5.140625 L 3.78125 -5.765625 L 2.8125 -5.765625 C 2.695312 -5.816406 2.640625 -5.9375 2.640625 -6.125 C 2.640625 -6.375 2.734375 -6.5 2.921875 -6.5 C 3.046875 -6.5 3.140625 -6.410156 3.203125 -6.234375 L 3.765625 -6.5 C 3.585938 -6.894531 3.304688 -7.09375 2.921875 -7.09375 C 2.648438 -7.09375 2.425781 -6.992188 2.25 -6.796875 C 2.070312 -6.609375 1.984375 -6.375 1.984375 -6.09375 C 1.984375 -6.03125 2 -5.921875 2.03125 -5.765625 L 1.546875 -5.765625 L 1.546875 -5.140625 Z M 6.34375 0 L 6.34375 -1.140625 L 4.96875 -1.140625 L 4.96875 -2.3125 C 4.96875 -2.96875 4.769531 -3.507812 4.375 -3.9375 C 3.988281 -4.363281 3.488281 -4.578125 2.875 -4.578125 C 2.226562 -4.578125 1.691406 -4.367188 1.265625 -3.953125 C 0.835938 -3.535156 0.625 -3 0.625 -2.34375 C 0.625 -1.6875 0.835938 -1.128906 1.265625 -0.671875 C 1.691406 -0.222656 2.210938 0 2.828125 0 L 3.90625 0 C 3.75 0.519531 3.375 0.78125 2.78125 0.78125 L 2.78125 1.65625 C 4.09375 1.65625 4.820312 1.101562 4.96875 0 Z M 3.84375 -1.140625 L 2.84375 -1.140625 C 2.539062 -1.140625 2.285156 -1.257812 2.078125 -1.5 C 1.867188 -1.75 1.765625 -2.050781 1.765625 -2.40625 C 1.765625 -2.738281 1.863281 -3.007812 2.0625 -3.21875 C 2.257812 -3.425781 2.523438 -3.53125 2.859375 -3.53125 C 3.140625 -3.53125 3.363281 -3.4375 3.53125 -3.25 C 3.707031 -3.070312 3.8125 -2.828125 3.84375 -2.515625 Z M 3.84375 -1.140625 "/></g></g></g><g fill="#ffffff" fill-opacity="1"><g transform="translate(62.698218, 77.088651)"><g><path d="M -0.21875 0 L 9.96875 0 L 9.96875 -1.140625 L 8.25 -1.140625 C 8.414062 -1.503906 8.5 -1.921875 8.5 -2.390625 L 8.5 -4.5625 L 7.359375 -4.5625 L 7.359375 -2.25 C 7.359375 -1.507812 7.078125 -1.140625 6.515625 -1.140625 L 5.421875 -1.140625 C 5.566406 -1.304688 5.640625 -1.71875 5.640625 -2.375 L 5.640625 -4.5625 L 4.515625 -4.5625 L 4.515625 -2.265625 C 4.515625 -1.515625 4.226562 -1.140625 3.65625 -1.140625 L 2.609375 -1.140625 L 2.609375 -1.203125 C 2.734375 -1.390625 2.796875 -1.78125 2.796875 -2.375 L 2.796875 -4.5625 L 1.65625 -4.5625 L 1.65625 -2.328125 C 1.65625 -1.535156 1.367188 -1.140625 0.796875 -1.140625 L -0.21875 -1.140625 Z M -0.21875 0 "/></g></g></g><g fill="#ffffff" fill-opacity="1"><g transform="translate(72.500192, 77.088651)"><g><path d="M 6.40625 0 L 6.40625 -1.140625 L 5.40625 -1.140625 L 5.40625 -1.4375 C 5.40625 -2.101562 5.195312 -2.660156 4.78125 -3.109375 C 4.375 -3.554688 3.832031 -3.78125 3.15625 -3.78125 C 2.488281 -3.78125 1.941406 -3.566406 1.515625 -3.140625 C 1.097656 -2.703125 0.890625 -2.148438 0.890625 -1.484375 C 0.890625 -1.328125 0.894531 -1.210938 0.90625 -1.140625 L -0.1875 -1.140625 L -0.1875 0 L 1.359375 0 C 1.785156 0.582031 2.382812 0.875 3.15625 0.875 C 3.9375 0.875 4.539062 0.582031 4.96875 0 Z M 4.25 -1.453125 C 4.25 -1.085938 4.160156 -0.785156 3.984375 -0.546875 C 3.785156 -0.296875 3.519531 -0.171875 3.1875 -0.171875 C 2.84375 -0.171875 2.566406 -0.296875 2.359375 -0.546875 C 2.148438 -0.804688 2.046875 -1.117188 2.046875 -1.484375 C 2.046875 -1.835938 2.132812 -2.132812 2.3125 -2.375 C 2.507812 -2.632812 2.78125 -2.765625 3.125 -2.765625 C 3.476562 -2.765625 3.765625 -2.628906 3.984375 -2.359375 C 4.160156 -2.109375 4.25 -1.804688 4.25 -1.453125 Z M 4.25 -1.453125 "/></g></g></g><g fill="#ffffff" fill-opacity="1"><g transform="translate(78.735587, 77.088651)"><g><path d="M 2.6875 -1.8125 L 2.6875 -6.484375 L 1.5625 -6.484375 L 1.5625 -2.203125 C 1.5625 -1.847656 1.535156 -1.609375 1.484375 -1.484375 C 1.367188 -1.253906 1.132812 -1.140625 0.78125 -1.140625 L -0.1875 -1.140625 L -0.1875 0 L 1 0 C 2.125 0 2.6875 -0.601562 2.6875 -1.8125 Z M 2.6875 -1.8125 "/></g></g></g><g fill="#ffffff" fill-opacity="1"><g transform="translate(81.747805, 77.088651)"><g><path d="M 1.828125 0 L 1.828125 -6.484375 L 0.71875 -6.484375 L 0.71875 0 Z M 1.828125 0 "/></g></g></g><g clip-path="url(#a65523f1df)"><g fill="#ffffff" fill-opacity="1"><g transform="translate(78.969349, 7.324119)"><g><path d="M 6.71875 0 L 6.71875 -1.140625 L 6.015625 -1.140625 C 5.253906 -1.140625 4.875 -1.539062 4.875 -2.34375 L 4.875 -5.53125 L 2.40625 -5.53125 C 1.757812 -5.53125 1.25 -5.3125 0.875 -4.875 C 0.507812 -4.4375 0.328125 -3.84375 0.328125 -3.09375 C 0.328125 -2.382812 0.515625 -1.8125 0.890625 -1.375 C 1.265625 -0.945312 1.769531 -0.734375 2.40625 -0.734375 C 2.90625 -0.734375 3.332031 -0.984375 3.6875 -1.484375 C 3.800781 -1.035156 4.023438 -0.675781 4.359375 -0.40625 C 4.691406 -0.132812 5.070312 0 5.5 0 Z M 3.71875 -3.203125 C 3.71875 -2.765625 3.609375 -2.398438 3.390625 -2.109375 C 3.179688 -1.816406 2.898438 -1.671875 2.546875 -1.671875 C 2.210938 -1.671875 1.941406 -1.804688 1.734375 -2.078125 C 1.535156 -2.359375 1.4375 -2.703125 1.4375 -3.109375 C 1.4375 -3.578125 1.550781 -3.953125 1.78125 -4.234375 C 2.007812 -4.515625 2.316406 -4.65625 2.703125 -4.65625 L 3.71875 -4.65625 Z M 2.890625 -6.34375 L 2.890625 -7.46875 L 1.796875 -7.46875 L 1.796875 -6.34375 Z M 4.796875 -6.34375 L 4.796875 -7.46875 L 3.6875 -7.46875 L 3.6875 -6.34375 Z M 4.796875 -6.34375 "/></g></g></g></g><g clip-path="url(#f955563d52)"><g fill="#ffffff" fill-opacity="1"><g transform="translate(85.557969, 7.324119)"><g><path d="M 2.6875 -1.8125 L 2.6875 -4.5625 L 1.5625 -4.5625 L 1.5625 -2.203125 C 1.5625 -1.847656 1.535156 -1.609375 1.484375 -1.484375 C 1.367188 -1.253906 1.132812 -1.140625 0.78125 -1.140625 L -0.1875 -1.140625 L -0.1875 0 L 1 0 C 2.125 0 2.6875 -0.601562 2.6875 -1.8125 Z M 2.671875 -5.484375 L 2.671875 -6.609375 L 1.578125 -6.609375 L 1.578125 -5.484375 Z M 2.671875 -5.484375 "/></g></g></g></g><g clip-path="url(#918b29f01a)"><g fill="#ffffff" fill-opacity="1"><g transform="translate(88.579999, 7.324119)"><g><path d="M 3.671875 0 L 3.671875 -1.140625 L 3.015625 -1.140625 C 2.585938 -1.140625 2.300781 -1.195312 2.15625 -1.3125 C 1.9375 -1.46875 1.828125 -1.789062 1.828125 -2.28125 L 1.828125 -6.484375 L 0.71875 -6.484375 L 0.71875 -1.828125 C 0.71875 -1.273438 0.847656 -0.835938 1.109375 -0.515625 C 1.398438 -0.171875 1.816406 0 2.359375 0 Z M 3.671875 0 "/></g></g></g></g><g fill="#ffffff" fill-opacity="1"><g transform="translate(92.053371, 7.324119)"><g><path d="M 5.703125 -1.421875 C 5.703125 -2.085938 5.488281 -2.644531 5.0625 -3.09375 C 4.644531 -3.550781 4.109375 -3.78125 3.453125 -3.78125 C 2.785156 -3.78125 2.238281 -3.5625 1.8125 -3.125 C 1.394531 -2.695312 1.1875 -2.144531 1.1875 -1.46875 C 1.1875 -1.40625 1.191406 -1.316406 1.203125 -1.203125 L 1.21875 -1.140625 L -0.171875 -1.140625 L -0.171875 0 L 1.640625 0 C 2.066406 0.59375 2.671875 0.890625 3.453125 0.890625 C 4.117188 0.890625 4.660156 0.671875 5.078125 0.234375 C 5.492188 -0.203125 5.703125 -0.753906 5.703125 -1.421875 Z M 4.546875 -1.421875 C 4.546875 -1.046875 4.445312 -0.738281 4.25 -0.5 C 4.050781 -0.269531 3.796875 -0.15625 3.484375 -0.15625 C 3.148438 -0.15625 2.875 -0.28125 2.65625 -0.53125 C 2.445312 -0.78125 2.34375 -1.097656 2.34375 -1.484375 C 2.34375 -1.859375 2.441406 -2.164062 2.640625 -2.40625 C 2.847656 -2.644531 3.109375 -2.765625 3.421875 -2.765625 C 3.753906 -2.765625 4.023438 -2.632812 4.234375 -2.375 C 4.441406 -2.125 4.546875 -1.804688 4.546875 -1.421875 Z M 4.546875 -1.421875 "/></g></g></g><g clip-path="url(#4b73cc25d8)"><g fill="#ffffff" fill-opacity="1"><g transform="translate(98.087619, 7.324119)"><g><path d="M 5.484375 -6.484375 L 4.390625 -6.484375 L 4.390625 -2.328125 C 4.390625 -1.867188 4.296875 -1.550781 4.109375 -1.375 C 3.960938 -1.21875 3.734375 -1.140625 3.421875 -1.140625 L 2.171875 -5.765625 L 0.984375 -5.765625 L 2.25 -1.140625 L 0.71875 -1.140625 L 0.71875 0 L 3.71875 0 C 4.257812 0 4.6875 -0.140625 5 -0.421875 C 5.320312 -0.710938 5.484375 -1.097656 5.484375 -1.578125 Z M 2.453125 -6.25 L 2.453125 -6.71875 L 1.640625 -6.71875 C 1.515625 -6.78125 1.453125 -6.898438 1.453125 -7.078125 C 1.453125 -7.179688 1.484375 -7.269531 1.546875 -7.34375 C 1.609375 -7.425781 1.691406 -7.46875 1.796875 -7.46875 C 1.953125 -7.46875 2.046875 -7.394531 2.078125 -7.25 L 2.4375 -7.4375 C 2.300781 -7.726562 2.09375 -7.875 1.8125 -7.875 C 1.59375 -7.875 1.40625 -7.796875 1.25 -7.640625 C 1.101562 -7.484375 1.03125 -7.289062 1.03125 -7.0625 C 1.03125 -7.019531 1.054688 -6.90625 1.109375 -6.71875 L 0.71875 -6.71875 L 0.71875 -6.25 Z M 2.453125 -6.25 "/></g></g></g></g><g clip-path="url(#291efc2c33)"><g fill="#ffffff" fill-opacity="1"><g transform="translate(103.910919, 7.324119)"><g><path d="M 1.828125 0 L 1.828125 -6.484375 L 0.71875 -6.484375 L 0.71875 0 Z M 1.828125 0 "/></g></g></g></g><g fill="#ffffff" fill-opacity="1"><g transform="translate(174.890072, 128.234267)"><g><path d="M 9.140625 -1.140625 L 8.71875 -1.140625 C 8.425781 -1.140625 8.171875 -1.21875 7.953125 -1.375 C 7.742188 -1.539062 7.535156 -1.8125 7.328125 -2.1875 C 6.890625 -2.988281 6.226562 -3.390625 5.34375 -3.390625 L 4.90625 -3.390625 L 4.90625 -2.359375 C 4.9375 -2.367188 4.992188 -2.375 5.078125 -2.375 C 5.398438 -2.375 5.648438 -2.273438 5.828125 -2.078125 C 6.003906 -1.878906 6.09375 -1.625 6.09375 -1.3125 C 6.09375 -0.789062 5.867188 -0.347656 5.421875 0.015625 C 4.984375 0.390625 4.445312 0.578125 3.8125 0.578125 C 3.082031 0.578125 2.503906 0.351562 2.078125 -0.09375 C 1.660156 -0.550781 1.453125 -1.171875 1.453125 -1.953125 L 1.453125 -2.9375 L 0.328125 -2.9375 L 0.328125 -1.8125 C 0.328125 -1.164062 0.476562 -0.578125 0.78125 -0.046875 C 1.082031 0.484375 1.5 0.898438 2.03125 1.203125 C 2.5625 1.515625 3.144531 1.671875 3.78125 1.671875 C 4.601562 1.671875 5.316406 1.4375 5.921875 0.96875 C 6.535156 0.507812 6.921875 -0.109375 7.078125 -0.890625 C 7.242188 -0.640625 7.398438 -0.453125 7.546875 -0.328125 C 7.703125 -0.210938 7.898438 -0.128906 8.140625 -0.078125 C 8.378906 -0.0234375 8.710938 0 9.140625 0 Z M 5.28125 3.890625 L 5.28125 2.765625 L 4.171875 2.765625 L 4.171875 3.890625 Z M 3.390625 3.890625 L 3.390625 2.765625 L 2.28125 2.765625 L 2.28125 3.890625 Z M 3.390625 3.890625 "/></g></g></g><g fill="#ffffff" fill-opacity="1"><g transform="translate(183.89239, 128.234267)"><g><path d="M 5.46875 0 L 5.46875 -1.140625 L 2.640625 -1.140625 C 2.390625 -1.410156 2.265625 -1.769531 2.265625 -2.21875 C 2.265625 -2.613281 2.359375 -2.9375 2.546875 -3.1875 C 2.742188 -3.488281 3.023438 -3.640625 3.390625 -3.640625 C 3.921875 -3.640625 4.273438 -3.378906 4.453125 -2.859375 L 5.421875 -3.328125 C 5.253906 -3.734375 4.992188 -4.050781 4.640625 -4.28125 C 4.285156 -4.507812 3.882812 -4.625 3.4375 -4.625 C 2.757812 -4.625 2.207031 -4.390625 1.78125 -3.921875 C 1.351562 -3.453125 1.140625 -2.878906 1.140625 -2.203125 C 1.140625 -1.816406 1.210938 -1.460938 1.359375 -1.140625 L -0.09375 -1.140625 L -0.09375 0 Z M 5.46875 0 "/></g></g></g><g fill="#ffffff" fill-opacity="1"><g transform="translate(189.676443, 128.234267)"><g><path d="M 3.671875 0 L 3.671875 -1.140625 L 3.015625 -1.140625 C 2.585938 -1.140625 2.300781 -1.195312 2.15625 -1.3125 C 1.9375 -1.46875 1.828125 -1.789062 1.828125 -2.28125 L 1.828125 -6.484375 L 0.71875 -6.484375 L 0.71875 -1.828125 C 0.71875 -1.273438 0.847656 -0.835938 1.109375 -0.515625 C 1.398438 -0.171875 1.816406 0 2.359375 0 Z M 3.671875 0 "/></g></g></g><g fill="#ffffff" fill-opacity="1"><g transform="translate(193.149815, 128.234267)"><g><path d="M 6.40625 0 L 6.40625 -1.140625 L 5.40625 -1.140625 L 5.40625 -1.4375 C 5.40625 -2.101562 5.195312 -2.660156 4.78125 -3.109375 C 4.375 -3.554688 3.832031 -3.78125 3.15625 -3.78125 C 2.488281 -3.78125 1.941406 -3.566406 1.515625 -3.140625 C 1.097656 -2.703125 0.890625 -2.148438 0.890625 -1.484375 C 0.890625 -1.328125 0.894531 -1.210938 0.90625 -1.140625 L -0.1875 -1.140625 L -0.1875 0 L 1.359375 0 C 1.785156 0.582031 2.382812 0.875 3.15625 0.875 C 3.9375 0.875 4.539062 0.582031 4.96875 0 Z M 4.25 -1.453125 C 4.25 -1.085938 4.160156 -0.785156 3.984375 -0.546875 C 3.785156 -0.296875 3.519531 -0.171875 3.1875 -0.171875 C 2.84375 -0.171875 2.566406 -0.296875 2.359375 -0.546875 C 2.148438 -0.804688 2.046875 -1.117188 2.046875 -1.484375 C 2.046875 -1.835938 2.132812 -2.132812 2.3125 -2.375 C 2.507812 -2.632812 2.78125 -2.765625 3.125 -2.765625 C 3.476562 -2.765625 3.765625 -2.628906 3.984375 -2.359375 C 4.160156 -2.109375 4.25 -1.804688 4.25 -1.453125 Z M 4.25 -1.453125 "/></g></g></g><g fill="#ffffff" fill-opacity="1"><g transform="translate(199.385211, 128.234267)"><g><path d="M 4.03125 2.203125 L 4.03125 1.078125 L 2.9375 1.078125 L 2.9375 2.203125 Z M 7.90625 0 L 7.90625 -1.140625 L 6.84375 -1.140625 C 6.757812 -2.523438 6.253906 -3.503906 5.328125 -4.078125 C 4.804688 -4.398438 4.195312 -4.5625 3.5 -4.5625 C 3.050781 -4.5625 2.609375 -4.46875 2.171875 -4.28125 C 1.773438 -4.101562 1.421875 -3.863281 1.109375 -3.5625 C 1.367188 -3.15625 1.546875 -2.863281 1.640625 -2.6875 C 1.890625 -2.957031 2.191406 -3.164062 2.546875 -3.3125 C 2.847656 -3.4375 3.128906 -3.5 3.390625 -3.5 C 4.128906 -3.5 4.707031 -3.25 5.125 -2.75 C 5.46875 -2.300781 5.640625 -1.765625 5.640625 -1.140625 L -0.15625 -1.140625 L -0.15625 0 Z M 7.90625 0 "/></g></g></g><g fill="#ffffff" fill-opacity="1"><g transform="translate(207.161056, 128.234267)"><g><path d="M 2.6875 -1.8125 L 2.6875 -6.484375 L 1.5625 -6.484375 L 1.5625 -2.203125 C 1.5625 -1.847656 1.535156 -1.609375 1.484375 -1.484375 C 1.367188 -1.253906 1.132812 -1.140625 0.78125 -1.140625 L -0.1875 -1.140625 L -0.1875 0 L 1 0 C 2.125 0 2.6875 -0.601562 2.6875 -1.8125 Z M 2.6875 -1.8125 "/></g></g></g><g fill="#ffffff" fill-opacity="1"><g transform="translate(210.173274, 128.234267)"><g><path d="M 1.828125 0 L 1.828125 -6.484375 L 0.71875 -6.484375 L 0.71875 0 Z M 1.828125 0 "/></g></g></g><g fill="#ffffff" fill-opacity="1"><g transform="translate(212.322055, 128.234267)"><g/></g></g><g fill="#ffffff" fill-opacity="1"><g transform="translate(214.730854, 128.234267)"><g><path d="M 8.3125 0 L 8.3125 -1.140625 L 6.609375 -1.140625 C 6.648438 -1.347656 6.671875 -1.554688 6.671875 -1.765625 L 6.671875 -6.484375 L 5.53125 -6.484375 L 5.53125 -1.90625 C 5.53125 -1.1875 5.335938 -0.585938 4.953125 -0.109375 C 4.578125 0.359375 4.09375 0.59375 3.5 0.59375 C 3.101562 0.59375 2.75 0.476562 2.4375 0.25 C 2.125 0.03125 1.878906 -0.265625 1.703125 -0.640625 C 1.535156 -1.015625 1.453125 -1.4375 1.453125 -1.90625 L 1.453125 -2.75 L 0.328125 -2.75 L 0.328125 -1.765625 C 0.328125 -1.148438 0.46875 -0.578125 0.75 -0.046875 C 1.039062 0.484375 1.429688 0.898438 1.921875 1.203125 C 2.410156 1.515625 2.9375 1.671875 3.5 1.671875 C 4.0625 1.671875 4.582031 1.519531 5.0625 1.21875 C 5.550781 0.925781 5.9375 0.519531 6.21875 0 Z M 8.3125 0 "/></g></g></g><g fill="#ffffff" fill-opacity="1"><g transform="translate(222.756895, 128.234267)"><g><path d="M 6.40625 0 L 6.40625 -1.140625 L 5.40625 -1.140625 L 5.40625 -1.4375 C 5.40625 -2.101562 5.195312 -2.660156 4.78125 -3.109375 C 4.375 -3.554688 3.832031 -3.78125 3.15625 -3.78125 C 2.488281 -3.78125 1.941406 -3.566406 1.515625 -3.140625 C 1.097656 -2.703125 0.890625 -2.148438 0.890625 -1.484375 C 0.890625 -1.328125 0.894531 -1.210938 0.90625 -1.140625 L -0.1875 -1.140625 L -0.1875 0 L 1.359375 0 C 1.785156 0.582031 2.382812 0.875 3.15625 0.875 C 3.9375 0.875 4.539062 0.582031 4.96875 0 Z M 4.25 -1.453125 C 4.25 -1.085938 4.160156 -0.785156 3.984375 -0.546875 C 3.785156 -0.296875 3.519531 -0.171875 3.1875 -0.171875 C 2.84375 -0.171875 2.566406 -0.296875 2.359375 -0.546875 C 2.148438 -0.804688 2.046875 -1.117188 2.046875 -1.484375 C 2.046875 -1.835938 2.132812 -2.132812 2.3125 -2.375 C 2.507812 -2.632812 2.78125 -2.765625 3.125 -2.765625 C 3.476562 -2.765625 3.765625 -2.628906 3.984375 -2.359375 C 4.160156 -2.109375 4.25 -1.804688 4.25 -1.453125 Z M 4.25 -1.453125 "/></g></g></g><g fill="#ffffff" fill-opacity="1"><g transform="translate(228.99229, 128.234267)"><g><path d="M 7.40625 0 L 7.40625 -1.140625 L 5.53125 -1.140625 C 5.3125 -1.140625 5.160156 -1.148438 5.078125 -1.171875 C 4.953125 -1.203125 4.820312 -1.285156 4.6875 -1.421875 C 5.039062 -1.671875 5.425781 -2.046875 5.84375 -2.546875 C 6.226562 -3.015625 6.460938 -3.382812 6.546875 -3.65625 C 5.734375 -4.351562 4.78125 -4.703125 3.6875 -4.703125 C 2.726562 -4.703125 1.820312 -4.425781 0.96875 -3.875 L 0.96875 -2.8125 C 1.34375 -2.71875 1.738281 -2.535156 2.15625 -2.265625 C 2.5625 -2.003906 2.84375 -1.757812 3 -1.53125 C 2.769531 -1.375 2.53125 -1.269531 2.28125 -1.21875 C 2.082031 -1.164062 1.820312 -1.140625 1.5 -1.140625 L -0.171875 -1.140625 L -0.171875 0 L 1.515625 0 C 2.265625 0 3.003906 -0.238281 3.734375 -0.71875 C 3.910156 -0.53125 4.125 -0.367188 4.375 -0.234375 C 4.6875 -0.078125 4.988281 0 5.28125 0 Z M 5.171875 -3.328125 C 5.035156 -3.128906 4.847656 -2.90625 4.609375 -2.65625 C 4.328125 -2.394531 4.082031 -2.210938 3.875 -2.109375 C 3.382812 -2.691406 2.816406 -3.09375 2.171875 -3.3125 C 2.691406 -3.59375 3.207031 -3.734375 3.71875 -3.734375 C 4.238281 -3.734375 4.722656 -3.597656 5.171875 -3.328125 Z M 5.171875 -3.328125 "/></g></g></g><g fill="#ffffff" fill-opacity="1"><g transform="translate(236.262823, 128.234267)"><g><path d="M 2.6875 -1.8125 L 2.6875 -6.484375 L 1.5625 -6.484375 L 1.5625 -2.203125 C 1.5625 -1.847656 1.535156 -1.609375 1.484375 -1.484375 C 1.367188 -1.253906 1.132812 -1.140625 0.78125 -1.140625 L -0.1875 -1.140625 L -0.1875 0 L 1 0 C 2.125 0 2.6875 -0.601562 2.6875 -1.8125 Z M 2.6875 -1.8125 "/></g></g></g><g fill="#ffffff" fill-opacity="1"><g transform="translate(239.275041, 128.234267)"><g><path d="M 1.828125 0 L 1.828125 -6.484375 L 0.71875 -6.484375 L 0.71875 0 Z M 1.828125 0 "/></g></g></g><g fill="#ffffff" fill-opacity="1"><g transform="translate(167.778617, 36.005716)"><g><path d="M 3.65625 -0.265625 L 3.65625 -1.390625 L 2.546875 -1.390625 L 2.546875 -0.265625 Z M 7.09375 0 L 7.09375 -1.140625 L 6.828125 -1.140625 C 6.472656 -1.140625 6.15625 -1.253906 5.875 -1.484375 C 5.46875 -1.804688 5.222656 -2.332031 5.140625 -3.0625 C 5.023438 -4.019531 4.726562 -4.722656 4.25 -5.171875 C 3.769531 -5.628906 3.097656 -5.859375 2.234375 -5.859375 C 1.941406 -5.859375 1.65625 -5.800781 1.375 -5.6875 L 1.375 -4.71875 C 1.5625 -4.820312 1.820312 -4.875 2.15625 -4.875 C 2.65625 -4.875 3.050781 -4.75 3.34375 -4.5 C 3.632812 -4.25 3.828125 -3.851562 3.921875 -3.3125 L 2.6875 -3.3125 C 1.976562 -3.3125 1.421875 -3.113281 1.015625 -2.71875 C 0.554688 -2.289062 0.328125 -1.660156 0.328125 -0.828125 C 0.328125 0.00390625 0.601562 0.640625 1.15625 1.078125 C 1.644531 1.460938 2.304688 1.65625 3.140625 1.65625 L 3.953125 1.65625 L 3.953125 0.484375 L 2.734375 0.484375 C 2.378906 0.484375 2.070312 0.363281 1.8125 0.125 C 1.570312 -0.101562 1.453125 -0.40625 1.453125 -0.78125 C 1.453125 -1.195312 1.566406 -1.53125 1.796875 -1.78125 C 2.035156 -2.03125 2.347656 -2.15625 2.734375 -2.15625 L 4.09375 -2.15625 C 4.175781 -1.65625 4.429688 -1.195312 4.859375 -0.78125 C 5.410156 -0.257812 6.066406 0 6.828125 0 Z M 7.09375 0 "/></g></g></g><g fill="#ffffff" fill-opacity="1"><g transform="translate(174.700837, 36.005716)"><g><path d="M 2.6875 -4.578125 L 2.6875 -5.25 L 1.421875 -5.25 C 1.328125 -5.363281 1.28125 -5.507812 1.28125 -5.6875 C 1.28125 -6.070312 1.429688 -6.265625 1.734375 -6.265625 C 1.953125 -6.265625 2.09375 -6.160156 2.15625 -5.953125 L 2.640625 -6.265625 C 2.460938 -6.671875 2.15625 -6.875 1.71875 -6.875 C 1.40625 -6.875 1.144531 -6.765625 0.9375 -6.546875 C 0.738281 -6.328125 0.640625 -6.0625 0.640625 -5.75 C 0.640625 -5.5625 0.671875 -5.394531 0.734375 -5.25 L 0.1875 -5.25 L 0.1875 -4.578125 Z M 2.6875 -1.8125 L 2.6875 -3.984375 L 1.5625 -3.984375 L 1.5625 -2.203125 C 1.5625 -1.847656 1.535156 -1.609375 1.484375 -1.484375 C 1.367188 -1.253906 1.132812 -1.140625 0.78125 -1.140625 L -0.078125 -1.140625 L -0.078125 0 L 1 0 C 2.125 0 2.6875 -0.601562 2.6875 -1.8125 Z M 2.6875 -1.8125 "/></g></g></g><g fill="#ffffff" fill-opacity="1"><g transform="translate(177.732679, 36.005716)"><g><path d="M 3.671875 0 L 3.671875 -1.140625 L 3.015625 -1.140625 C 2.585938 -1.140625 2.300781 -1.195312 2.15625 -1.3125 C 1.9375 -1.46875 1.828125 -1.789062 1.828125 -2.28125 L 1.828125 -6.484375 L 0.71875 -6.484375 L 0.71875 -1.828125 C 0.71875 -1.273438 0.847656 -0.835938 1.109375 -0.515625 C 1.398438 -0.171875 1.816406 0 2.359375 0 Z M 3.671875 0 "/></g></g></g><g fill="#ffffff" fill-opacity="1"><g transform="translate(181.206051, 36.005716)"><g><path d="M 0.890625 -5.5 L 0.890625 -6.609375 L -0.21875 -6.609375 L -0.21875 -5.5 Z M 2.796875 -5.5 L 2.796875 -6.609375 L 1.6875 -6.609375 L 1.6875 -5.5 Z M 4.484375 0 L 4.484375 -1.140625 L 2.546875 -1.140625 C 2.710938 -1.328125 2.796875 -1.71875 2.796875 -2.3125 L 2.796875 -4.5625 L 1.671875 -4.5625 L 1.671875 -2.25 C 1.671875 -1.894531 1.632812 -1.640625 1.5625 -1.484375 C 1.4375 -1.253906 1.210938 -1.140625 0.890625 -1.140625 L -0.15625 -1.140625 L -0.15625 0 Z M 4.484375 0 "/></g></g></g><g fill="#ffffff" fill-opacity="1"><g transform="translate(185.533048, 36.005716)"><g><path d="M 4.484375 0 L 4.484375 -1.140625 L 2.546875 -1.140625 C 2.710938 -1.328125 2.796875 -1.71875 2.796875 -2.3125 L 2.796875 -4.5625 L 1.671875 -4.5625 L 1.671875 -2.25 C 1.671875 -1.894531 1.632812 -1.640625 1.5625 -1.484375 C 1.4375 -1.253906 1.210938 -1.140625 0.890625 -1.140625 L -0.15625 -1.140625 L -0.15625 0 Z M 2.796875 -5.484375 L 2.796875 -6.609375 L 1.6875 -6.609375 L 1.6875 -5.484375 Z M 2.796875 -5.484375 "/></g></g></g><g fill="#ffffff" fill-opacity="1"><g transform="translate(189.860045, 36.005716)"><g><path d="M 2.6875 -1.8125 L 2.6875 -6.484375 L 1.5625 -6.484375 L 1.5625 -2.203125 C 1.5625 -1.847656 1.535156 -1.609375 1.484375 -1.484375 C 1.367188 -1.253906 1.132812 -1.140625 0.78125 -1.140625 L -0.1875 -1.140625 L -0.1875 0 L 1 0 C 2.125 0 2.6875 -0.601562 2.6875 -1.8125 Z M 2.6875 -1.8125 "/></g></g></g><g fill="#ffffff" fill-opacity="1"><g transform="translate(192.872264, 36.005716)"><g><path d="M 1.828125 0 L 1.828125 -6.484375 L 0.71875 -6.484375 L 0.71875 0 Z M 1.828125 0 "/></g></g></g><g fill="#ffffff" fill-opacity="1"><g transform="translate(195.021045, 36.005716)"><g/></g></g><g fill="#ffffff" fill-opacity="1"><g transform="translate(197.429844, 36.005716)"><g><path d="M 9.140625 -1.140625 L 8.71875 -1.140625 C 8.425781 -1.140625 8.171875 -1.21875 7.953125 -1.375 C 7.742188 -1.539062 7.535156 -1.8125 7.328125 -2.1875 C 6.890625 -2.988281 6.226562 -3.390625 5.34375 -3.390625 L 4.90625 -3.390625 L 4.90625 -2.359375 C 4.9375 -2.367188 4.992188 -2.375 5.078125 -2.375 C 5.398438 -2.375 5.648438 -2.273438 5.828125 -2.078125 C 6.003906 -1.878906 6.09375 -1.625 6.09375 -1.3125 C 6.09375 -0.789062 5.867188 -0.347656 5.421875 0.015625 C 4.984375 0.390625 4.445312 0.578125 3.8125 0.578125 C 3.082031 0.578125 2.503906 0.351562 2.078125 -0.09375 C 1.660156 -0.550781 1.453125 -1.171875 1.453125 -1.953125 L 1.453125 -2.9375 L 0.328125 -2.9375 L 0.328125 -1.8125 C 0.328125 -1.164062 0.476562 -0.578125 0.78125 -0.046875 C 1.082031 0.484375 1.5 0.898438 2.03125 1.203125 C 2.5625 1.515625 3.144531 1.671875 3.78125 1.671875 C 4.601562 1.671875 5.316406 1.4375 5.921875 0.96875 C 6.535156 0.507812 6.921875 -0.109375 7.078125 -0.890625 C 7.242188 -0.640625 7.398438 -0.453125 7.546875 -0.328125 C 7.703125 -0.210938 7.898438 -0.128906 8.140625 -0.078125 C 8.378906 -0.0234375 8.710938 0 9.140625 0 Z M 9.140625 -1.140625 "/></g></g></g><g fill="#ffffff" fill-opacity="1"><g transform="translate(206.432162, 36.005716)"><g><path d="M 4.4375 0 L 4.4375 -1.140625 L 2.546875 -1.140625 C 2.710938 -1.328125 2.796875 -1.71875 2.796875 -2.3125 L 2.796875 -6.484375 L 1.671875 -6.484375 L 1.671875 -2.25 C 1.671875 -1.894531 1.632812 -1.640625 1.5625 -1.484375 C 1.4375 -1.253906 1.210938 -1.140625 0.890625 -1.140625 L -0.15625 -1.140625 L -0.15625 0 Z M 4.4375 0 "/></g></g></g><g fill="#ffffff" fill-opacity="1"><g transform="translate(210.75916, 36.005716)"><g><path d="M 5.46875 0 L 5.46875 -1.140625 L 2.640625 -1.140625 C 2.390625 -1.410156 2.265625 -1.769531 2.265625 -2.21875 C 2.265625 -2.613281 2.359375 -2.9375 2.546875 -3.1875 C 2.742188 -3.488281 3.023438 -3.640625 3.390625 -3.640625 C 3.921875 -3.640625 4.273438 -3.378906 4.453125 -2.859375 L 5.421875 -3.328125 C 5.253906 -3.734375 4.992188 -4.050781 4.640625 -4.28125 C 4.285156 -4.507812 3.882812 -4.625 3.4375 -4.625 C 2.757812 -4.625 2.207031 -4.390625 1.78125 -3.921875 C 1.351562 -3.453125 1.140625 -2.878906 1.140625 -2.203125 C 1.140625 -1.816406 1.210938 -1.460938 1.359375 -1.140625 L -0.09375 -1.140625 L -0.09375 0 Z M 5.46875 0 "/></g></g></g><g fill="#ffffff" fill-opacity="1"><g transform="translate(216.543213, 36.005716)"><g/></g></g><g fill="#ffffff" fill-opacity="1"><g transform="translate(218.952012, 36.005716)"><g><path d="M 4.671875 0 L 4.671875 -1.140625 L 2.9375 -1.140625 L 2.9375 -4.5625 L 1.8125 -4.5625 L 1.8125 -0.71875 C 1.8125 -0.238281 1.695312 0.113281 1.46875 0.34375 C 1.238281 0.582031 0.890625 0.703125 0.421875 0.703125 L 0.421875 1.671875 C 1.109375 1.671875 1.664062 1.523438 2.09375 1.234375 C 2.53125 0.941406 2.789062 0.53125 2.875 0 Z M 2.9375 -5.484375 L 2.9375 -6.609375 L 1.828125 -6.609375 L 1.828125 -5.484375 Z M 2.9375 -5.484375 "/></g></g></g><g fill="#ffffff" fill-opacity="1"><g transform="translate(223.401662, 36.005716)"><g><path d="M 4.453125 0 L 4.453125 -1.140625 L 2.5625 -1.140625 C 2.726562 -1.328125 2.8125 -1.71875 2.8125 -2.3125 L 2.8125 -4.5625 L 1.703125 -4.5625 L 1.703125 -2.25 C 1.703125 -1.894531 1.660156 -1.640625 1.578125 -1.484375 C 1.453125 -1.253906 1.222656 -1.140625 0.890625 -1.140625 L -0.1875 -1.140625 L -0.1875 0 Z M 2.765625 2.203125 L 2.765625 1.078125 L 1.671875 1.078125 L 1.671875 2.203125 Z M 0.875 2.203125 L 0.875 1.078125 L -0.234375 1.078125 L -0.234375 2.203125 Z M 0.875 2.203125 "/></g></g></g><g fill="#ffffff" fill-opacity="1"><g transform="translate(227.738471, 36.005716)"><g><path d="M 6.546875 -0.703125 C 6.546875 -2.273438 6.070312 -3.378906 5.125 -4.015625 C 4.582031 -4.378906 3.9375 -4.5625 3.1875 -4.5625 L 2.703125 -4.5625 L 4.0625 -6.484375 L 2.71875 -6.484375 L 0.75 -3.5 L 3.0625 -3.5 C 3.800781 -3.5 4.378906 -3.25 4.796875 -2.75 C 5.160156 -2.300781 5.34375 -1.765625 5.34375 -1.140625 L -0.171875 -1.140625 L -0.171875 0 L 6.546875 0 Z M 6.546875 -0.703125 "/></g></g></g><g fill="#ffffff" fill-opacity="1"><g transform="translate(234.606721, 36.005716)"><g><path d="M 4.671875 0 L 4.671875 -1.140625 L 2.9375 -1.140625 L 2.9375 -4.5625 L 1.8125 -4.5625 L 1.8125 -0.71875 C 1.8125 -0.238281 1.695312 0.113281 1.46875 0.34375 C 1.238281 0.582031 0.890625 0.703125 0.421875 0.703125 L 0.421875 1.671875 C 1.109375 1.671875 1.664062 1.523438 2.09375 1.234375 C 2.53125 0.941406 2.789062 0.53125 2.875 0 Z M 4.671875 0 "/></g></g></g><g fill="#ffffff" fill-opacity="1"><g transform="translate(239.056371, 36.005716)"><g><path d="M 0.890625 -5.5 L 0.890625 -6.609375 L -0.21875 -6.609375 L -0.21875 -5.5 Z M 2.796875 -5.5 L 2.796875 -6.609375 L 1.6875 -6.609375 L 1.6875 -5.5 Z M 4.484375 0 L 4.484375 -1.140625 L 2.546875 -1.140625 C 2.710938 -1.328125 2.796875 -1.71875 2.796875 -2.3125 L 2.796875 -4.5625 L 1.671875 -4.5625 L 1.671875 -2.25 C 1.671875 -1.894531 1.632812 -1.640625 1.5625 -1.484375 C 1.4375 -1.253906 1.210938 -1.140625 0.890625 -1.140625 L -0.15625 -1.140625 L -0.15625 0 Z M 4.484375 0 "/></g></g></g><g fill="#ffffff" fill-opacity="1"><g transform="translate(243.383369, 36.005716)"><g><path d="M 2.6875 -1.8125 L 2.6875 -6.484375 L 1.5625 -6.484375 L 1.5625 -2.203125 C 1.5625 -1.847656 1.535156 -1.609375 1.484375 -1.484375 C 1.367188 -1.253906 1.132812 -1.140625 0.78125 -1.140625 L -0.1875 -1.140625 L -0.1875 0 L 1 0 C 2.125 0 2.6875 -0.601562 2.6875 -1.8125 Z M 2.6875 -1.8125 "/></g></g></g><g fill="#ffffff" fill-opacity="1"><g transform="translate(246.395587, 36.005716)"><g><path d="M 1.828125 0 L 1.828125 -6.484375 L 0.71875 -6.484375 L 0.71875 0 Z M 1.828125 0 "/></g></g></g><g fill="#ffffff" fill-opacity="1"><g transform="translate(20.365026, 28.214658)"><g><path d="M 6.71875 0 L 6.71875 -1.140625 L 6.015625 -1.140625 C 5.253906 -1.140625 4.875 -1.539062 4.875 -2.34375 L 4.875 -5.53125 L 2.40625 -5.53125 C 1.757812 -5.53125 1.25 -5.3125 0.875 -4.875 C 0.507812 -4.4375 0.328125 -3.84375 0.328125 -3.09375 C 0.328125 -2.382812 0.515625 -1.8125 0.890625 -1.375 C 1.265625 -0.945312 1.769531 -0.734375 2.40625 -0.734375 C 2.90625 -0.734375 3.332031 -0.984375 3.6875 -1.484375 C 3.800781 -1.035156 4.023438 -0.675781 4.359375 -0.40625 C 4.691406 -0.132812 5.070312 0 5.5 0 Z M 3.71875 -3.203125 C 3.71875 -2.765625 3.609375 -2.398438 3.390625 -2.109375 C 3.179688 -1.816406 2.898438 -1.671875 2.546875 -1.671875 C 2.210938 -1.671875 1.941406 -1.804688 1.734375 -2.078125 C 1.535156 -2.359375 1.4375 -2.703125 1.4375 -3.109375 C 1.4375 -3.578125 1.550781 -3.953125 1.78125 -4.234375 C 2.007812 -4.515625 2.316406 -4.65625 2.703125 -4.65625 L 3.71875 -4.65625 Z M 2.890625 -6.34375 L 2.890625 -7.46875 L 1.796875 -7.46875 L 1.796875 -6.34375 Z M 4.796875 -6.34375 L 4.796875 -7.46875 L 3.6875 -7.46875 L 3.6875 -6.34375 Z M 4.796875 -6.34375 "/></g></g></g><g fill="#ffffff" fill-opacity="1"><g transform="translate(26.953646, 28.214658)"><g><path d="M 7.109375 0 C 7.179688 -0.382812 7.21875 -0.785156 7.21875 -1.203125 C 7.21875 -2.460938 6.90625 -3.523438 6.28125 -4.390625 C 5.664062 -5.253906 4.820312 -5.796875 3.75 -6.015625 L 3.609375 -4.9375 C 4.085938 -4.832031 4.515625 -4.609375 4.890625 -4.265625 C 5.273438 -3.929688 5.570312 -3.507812 5.78125 -3 C 6 -2.5 6.109375 -1.972656 6.109375 -1.421875 C 6.109375 -1.296875 6.101562 -1.203125 6.09375 -1.140625 L 4.765625 -1.140625 C 4.941406 -1.554688 5.03125 -1.90625 5.03125 -2.1875 C 5.03125 -2.78125 4.847656 -3.253906 4.484375 -3.609375 C 4.117188 -3.960938 3.640625 -4.140625 3.046875 -4.140625 C 2.441406 -4.140625 1.957031 -3.960938 1.59375 -3.609375 C 1.238281 -3.253906 1.0625 -2.78125 1.0625 -2.1875 C 1.0625 -1.90625 1.144531 -1.554688 1.3125 -1.140625 L -0.15625 -1.140625 L -0.15625 0 Z M 3.71875 -2.953125 C 3.882812 -2.753906 3.96875 -2.5 3.96875 -2.1875 C 3.96875 -1.875 3.878906 -1.613281 3.703125 -1.40625 C 3.535156 -1.207031 3.316406 -1.109375 3.046875 -1.109375 C 2.773438 -1.109375 2.550781 -1.210938 2.375 -1.421875 C 2.207031 -1.628906 2.125 -1.882812 2.125 -2.1875 C 2.125 -2.5 2.203125 -2.753906 2.359375 -2.953125 C 2.523438 -3.148438 2.753906 -3.25 3.046875 -3.25 C 3.335938 -3.25 3.5625 -3.148438 3.71875 -2.953125 Z M 3.71875 -2.953125 "/></g></g></g><g fill="#ffffff" fill-opacity="1"><g transform="translate(34.498909, 28.214658)"><g><path d="M 1.828125 0 L 1.828125 -6.484375 L 0.71875 -6.484375 L 0.71875 0 Z M 1.828125 0 "/></g></g></g><g fill="#ffffff" fill-opacity="1"><g transform="translate(36.64769, 28.214658)"><g><path d="M 4.671875 0 L 4.671875 -1.140625 L 2.9375 -1.140625 L 2.9375 -4.5625 L 1.8125 -4.5625 L 1.8125 -0.71875 C 1.8125 -0.238281 1.695312 0.113281 1.46875 0.34375 C 1.238281 0.582031 0.890625 0.703125 0.421875 0.703125 L 0.421875 1.671875 C 1.109375 1.671875 1.664062 1.523438 2.09375 1.234375 C 2.53125 0.941406 2.789062 0.53125 2.875 0 Z M 2.9375 -5.484375 L 2.9375 -6.609375 L 1.828125 -6.609375 L 1.828125 -5.484375 Z M 2.9375 -5.484375 "/></g></g></g><g fill="#ffffff" fill-opacity="1"><g transform="translate(41.09734, 28.214658)"><g><path d="M 4.484375 0 L 4.484375 -1.140625 L 2.546875 -1.140625 C 2.710938 -1.328125 2.796875 -1.71875 2.796875 -2.3125 L 2.796875 -4.5625 L 1.671875 -4.5625 L 1.671875 -2.25 C 1.671875 -1.894531 1.632812 -1.640625 1.5625 -1.484375 C 1.4375 -1.253906 1.210938 -1.140625 0.890625 -1.140625 L -0.15625 -1.140625 L -0.15625 0 Z M 2.796875 -5.484375 L 2.796875 -6.609375 L 1.6875 -6.609375 L 1.6875 -5.484375 Z M 2.796875 -5.484375 "/></g></g></g><g fill="#ffffff" fill-opacity="1"><g transform="translate(45.424337, 28.214658)"><g><path d="M 2.6875 -1.8125 L 2.6875 -6.484375 L 1.5625 -6.484375 L 1.5625 -2.203125 C 1.5625 -1.847656 1.535156 -1.609375 1.484375 -1.484375 C 1.367188 -1.253906 1.132812 -1.140625 0.78125 -1.140625 L -0.1875 -1.140625 L -0.1875 0 L 1 0 C 2.125 0 2.6875 -0.601562 2.6875 -1.8125 Z M 2.6875 -1.8125 "/></g></g></g><g fill="#ffffff" fill-opacity="1"><g transform="translate(48.436556, 28.214658)"><g><path d="M 1.828125 0 L 1.828125 -6.484375 L 0.71875 -6.484375 L 0.71875 0 Z M 1.828125 0 "/></g></g></g><g clip-path="url(#7e4b9c0214)"><g clip-path="url(#147c50ca8d)"><path fill="#1c81af" d="M 30.390625 34.753906 L 40.566406 34.753906 L 40.566406 44.929688 L 30.390625 44.929688 Z M 30.390625 34.753906 " fill-opacity="1" fill-rule="nonzero"/></g></g><g clip-path="url(#2709210123)"><g clip-path="url(#6815ce12f6)"><path fill="#ffffff" d="M 30.390625 34.753906 L 40.566406 34.753906 L 40.566406 44.929688 L 30.390625 44.929688 Z M 30.390625 34.753906 " fill-opacity="1" fill-rule="nonzero"/></g></g><g fill="#ffffff" fill-opacity="1"><g transform="translate(169.994325, 104.814579)"><g><path d="M 5.609375 -2.015625 L 5.609375 -3.140625 L 3.5625 -3.140625 C 3.375 -3.203125 3.210938 -3.351562 3.078125 -3.59375 C 2.941406 -3.84375 2.875 -4.101562 2.875 -4.375 C 2.875 -4.71875 2.960938 -5 3.140625 -5.21875 C 3.328125 -5.445312 3.578125 -5.5625 3.890625 -5.5625 C 4.265625 -5.5625 4.539062 -5.378906 4.71875 -5.015625 L 5.5625 -5.421875 C 5.21875 -6.128906 4.664062 -6.484375 3.90625 -6.484375 C 3.3125 -6.484375 2.816406 -6.28125 2.421875 -5.875 C 2.035156 -5.476562 1.84375 -4.96875 1.84375 -4.34375 C 1.84375 -3.945312 1.96875 -3.53125 2.21875 -3.09375 C 1.644531 -3 1.1875 -2.738281 0.84375 -2.3125 C 0.5 -1.882812 0.328125 -1.359375 0.328125 -0.734375 C 0.328125 -0.015625 0.578125 0.5625 1.078125 1 C 1.585938 1.445312 2.242188 1.671875 3.046875 1.671875 L 4.765625 1.671875 L 4.765625 0.546875 L 2.96875 0.546875 C 2.476562 0.546875 2.09375 0.4375 1.8125 0.21875 C 1.53125 0 1.390625 -0.304688 1.390625 -0.703125 C 1.390625 -1.578125 1.914062 -2.015625 2.96875 -2.015625 Z M 5.609375 -2.015625 "/></g></g></g><g fill="#ffffff" fill-opacity="1"><g transform="translate(175.930455, 104.814579)"><g><path d="M 6.34375 0 L 6.34375 -1.140625 L 4.96875 -1.140625 L 4.96875 -2.3125 C 4.96875 -2.96875 4.769531 -3.507812 4.375 -3.9375 C 3.988281 -4.363281 3.488281 -4.578125 2.875 -4.578125 C 2.226562 -4.578125 1.691406 -4.367188 1.265625 -3.953125 C 0.835938 -3.535156 0.625 -3 0.625 -2.34375 C 0.625 -1.6875 0.835938 -1.128906 1.265625 -0.671875 C 1.691406 -0.222656 2.210938 0 2.828125 0 L 3.90625 0 C 3.75 0.519531 3.375 0.78125 2.78125 0.78125 L 2.78125 1.65625 C 4.09375 1.65625 4.820312 1.101562 4.96875 0 Z M 3.84375 -1.140625 L 2.84375 -1.140625 C 2.539062 -1.140625 2.285156 -1.257812 2.078125 -1.5 C 1.867188 -1.75 1.765625 -2.050781 1.765625 -2.40625 C 1.765625 -2.738281 1.863281 -3.007812 2.0625 -3.21875 C 2.257812 -3.425781 2.523438 -3.53125 2.859375 -3.53125 C 3.140625 -3.53125 3.363281 -3.4375 3.53125 -3.25 C 3.707031 -3.070312 3.8125 -2.828125 3.84375 -2.515625 Z M 3.84375 -1.140625 "/></g></g></g><g fill="#ffffff" fill-opacity="1"><g transform="translate(182.16585, 104.814579)"><g><path d="M 4.484375 0 L 4.484375 -1.140625 L 2.546875 -1.140625 C 2.710938 -1.328125 2.796875 -1.71875 2.796875 -2.3125 L 2.796875 -4.5625 L 1.671875 -4.5625 L 1.671875 -2.25 C 1.671875 -1.894531 1.632812 -1.640625 1.5625 -1.484375 C 1.4375 -1.253906 1.210938 -1.140625 0.890625 -1.140625 L -0.15625 -1.140625 L -0.15625 0 Z M 2.796875 -5.484375 L 2.796875 -6.609375 L 1.6875 -6.609375 L 1.6875 -5.484375 Z M 2.796875 -5.484375 "/></g></g></g><g fill="#ffffff" fill-opacity="1"><g transform="translate(186.492848, 104.814579)"><g><path d="M 0.890625 -5.5 L 0.890625 -6.609375 L -0.21875 -6.609375 L -0.21875 -5.5 Z M 2.796875 -5.5 L 2.796875 -6.609375 L 1.6875 -6.609375 L 1.6875 -5.5 Z M 4.484375 0 L 4.484375 -1.140625 L 2.546875 -1.140625 C 2.710938 -1.328125 2.796875 -1.71875 2.796875 -2.3125 L 2.796875 -4.5625 L 1.671875 -4.5625 L 1.671875 -2.25 C 1.671875 -1.894531 1.632812 -1.640625 1.5625 -1.484375 C 1.4375 -1.253906 1.210938 -1.140625 0.890625 -1.140625 L -0.15625 -1.140625 L -0.15625 0 Z M 4.484375 0 "/></g></g></g><g fill="#ffffff" fill-opacity="1"><g transform="translate(190.819845, 104.814579)"><g><path d="M 2.6875 -1.8125 L 2.6875 -6.484375 L 1.5625 -6.484375 L 1.5625 -2.203125 C 1.5625 -1.847656 1.535156 -1.609375 1.484375 -1.484375 C 1.367188 -1.253906 1.132812 -1.140625 0.78125 -1.140625 L -0.1875 -1.140625 L -0.1875 0 L 1 0 C 2.125 0 2.6875 -0.601562 2.6875 -1.8125 Z M 2.6875 -1.8125 "/></g></g></g><g fill="#ffffff" fill-opacity="1"><g transform="translate(193.832063, 104.814579)"><g><path d="M 1.828125 0 L 1.828125 -6.484375 L 0.71875 -6.484375 L 0.71875 0 Z M 1.828125 0 "/></g></g></g><g fill="#ffffff" fill-opacity="1"><g transform="translate(224.069331, 66.052297)"><g><path d="M 5.078125 -2.4375 C 5.078125 -3.15625 4.851562 -3.742188 4.40625 -4.203125 C 3.96875 -4.671875 3.40625 -4.90625 2.71875 -4.90625 C 2.019531 -4.90625 1.445312 -4.675781 1 -4.21875 C 0.550781 -3.769531 0.328125 -3.1875 0.328125 -2.46875 C 0.328125 -1.757812 0.546875 -1.171875 0.984375 -0.703125 C 1.429688 -0.234375 2.007812 0 2.71875 0 C 3.414062 0 3.984375 -0.226562 4.421875 -0.6875 C 4.859375 -1.15625 5.078125 -1.738281 5.078125 -2.4375 Z M 3.921875 -2.4375 C 3.921875 -2.019531 3.8125 -1.675781 3.59375 -1.40625 C 3.382812 -1.144531 3.101562 -1.015625 2.75 -1.015625 C 2.382812 -1.015625 2.082031 -1.15625 1.84375 -1.4375 C 1.601562 -1.71875 1.484375 -2.066406 1.484375 -2.484375 C 1.484375 -2.898438 1.585938 -3.238281 1.796875 -3.5 C 2.015625 -3.769531 2.304688 -3.90625 2.671875 -3.90625 C 3.046875 -3.90625 3.347656 -3.765625 3.578125 -3.484375 C 3.804688 -3.210938 3.921875 -2.863281 3.921875 -2.4375 Z M 2.296875 -5.84375 L 2.296875 -6.953125 L 1.1875 -6.953125 L 1.1875 -5.84375 Z M 4.203125 -5.84375 L 4.203125 -6.953125 L 3.09375 -6.953125 L 3.09375 -5.84375 Z M 4.203125 -5.84375 "/></g></g></g><g fill="#ffffff" fill-opacity="1"><g transform="translate(229.402042, 66.052297)"><g><path d="M 5.390625 0 L 5.390625 -1.140625 C 5.378906 -2.859375 4.703125 -3.945312 3.359375 -4.40625 C 3.117188 -4.488281 2.921875 -4.535156 2.765625 -4.546875 C 2.578125 -4.554688 2.226562 -4.5625 1.71875 -4.5625 L 1.71875 -3.53125 C 2.113281 -3.53125 2.453125 -3.5 2.734375 -3.4375 C 3.753906 -3.21875 4.265625 -2.453125 4.265625 -1.140625 L 0.625 -1.140625 L 0.625 0 Z M 5.390625 0 "/></g></g></g><g fill="#ffffff" fill-opacity="1"><g transform="translate(235.117412, 66.052297)"><g><path d="M 6.34375 0 L 6.34375 -1.140625 L 4.96875 -1.140625 L 4.96875 -2.3125 C 4.96875 -2.96875 4.769531 -3.507812 4.375 -3.9375 C 3.988281 -4.363281 3.488281 -4.578125 2.875 -4.578125 C 2.226562 -4.578125 1.691406 -4.367188 1.265625 -3.953125 C 0.835938 -3.535156 0.625 -3 0.625 -2.34375 C 0.625 -1.6875 0.835938 -1.128906 1.265625 -0.671875 C 1.691406 -0.222656 2.210938 0 2.828125 0 L 3.90625 0 C 3.75 0.519531 3.375 0.78125 2.78125 0.78125 L 2.78125 1.65625 C 4.09375 1.65625 4.820312 1.101562 4.96875 0 Z M 3.84375 -1.140625 L 2.84375 -1.140625 C 2.539062 -1.140625 2.285156 -1.257812 2.078125 -1.5 C 1.867188 -1.75 1.765625 -2.050781 1.765625 -2.40625 C 1.765625 -2.738281 1.863281 -3.007812 2.0625 -3.21875 C 2.257812 -3.425781 2.523438 -3.53125 2.859375 -3.53125 C 3.140625 -3.53125 3.363281 -3.4375 3.53125 -3.25 C 3.707031 -3.070312 3.8125 -2.828125 3.84375 -2.515625 Z M 3.84375 -1.140625 "/></g></g></g><g fill="#ffffff" fill-opacity="1"><g transform="translate(241.352808, 66.052297)"><g><path d="M 4.03125 2.203125 L 4.03125 1.078125 L 2.9375 1.078125 L 2.9375 2.203125 Z M 7.90625 0 L 7.90625 -1.140625 L 6.84375 -1.140625 C 6.757812 -2.523438 6.253906 -3.503906 5.328125 -4.078125 C 4.804688 -4.398438 4.195312 -4.5625 3.5 -4.5625 C 3.050781 -4.5625 2.609375 -4.46875 2.171875 -4.28125 C 1.773438 -4.101562 1.421875 -3.863281 1.109375 -3.5625 C 1.367188 -3.15625 1.546875 -2.863281 1.640625 -2.6875 C 1.890625 -2.957031 2.191406 -3.164062 2.546875 -3.3125 C 2.847656 -3.4375 3.128906 -3.5 3.390625 -3.5 C 4.128906 -3.5 4.707031 -3.25 5.125 -2.75 C 5.46875 -2.300781 5.640625 -1.765625 5.640625 -1.140625 L -0.15625 -1.140625 L -0.15625 0 Z M 7.90625 0 "/></g></g></g><g fill="#ffffff" fill-opacity="1"><g transform="translate(249.128653, 66.052297)"><g><path d="M 2.6875 -1.8125 L 2.6875 -6.484375 L 1.5625 -6.484375 L 1.5625 -2.203125 C 1.5625 -1.847656 1.535156 -1.609375 1.484375 -1.484375 C 1.367188 -1.253906 1.132812 -1.140625 0.78125 -1.140625 L -0.1875 -1.140625 L -0.1875 0 L 1 0 C 2.125 0 2.6875 -0.601562 2.6875 -1.8125 Z M 2.6875 -1.8125 "/></g></g></g><g fill="#ffffff" fill-opacity="1"><g transform="translate(252.140871, 66.052297)"><g><path d="M 1.828125 0 L 1.828125 -6.484375 L 0.71875 -6.484375 L 0.71875 0 Z M 1.828125 0 "/></g></g></g></svg>