<?xml version="1.0" encoding="UTF-8"?>
<svg version="1.1" xmlns="http://www.w3.org/2000/svg" width="900" height="50">
<path d="M0 0 C297 0 594 0 900 0 C900 16.5 900 33 900 50 C603 50 306 50 0 50 C0 33.5 0 17 0 0 Z " fill="#0E0E0E" transform="translate(0,0)"/>
<path d="M0 0 C297 0 594 0 900 0 C900 15.51 900 31.02 900 47 C880.86573468 44.77440215 861.99930003 41.67519955 843.04614258 38.25854492 C821.76760432 34.43612758 800.89194055 31.56931899 779.25 31.625 C778.07794006 31.62531723 778.07794006 31.62531723 776.88220215 31.62564087 C760.04309922 31.67033333 743.62772182 33.47428267 727 36 C725.97486298 36.15559387 725.97486298 36.15559387 724.92901611 36.31433105 C721.44742514 36.84456604 717.96668497 37.38018614 714.48632812 37.91845703 C707.6615277 38.9731735 700.83345811 40.00286508 694 41 C692.26339111 41.25426758 692.26339111 41.25426758 690.49169922 41.51367188 C655.80832324 46.35718548 618.75766003 46.02392646 584 42 C583.04818848 41.89284668 582.09637695 41.78569336 581.11572266 41.67529297 C575.34444569 41.00971176 569.59203003 40.24601585 563.84277344 39.41210938 C561.979668 39.14201989 560.11574588 38.87749232 558.25097656 38.61914062 C540.47269257 36.15358487 522.86851324 32.78428893 505.23999023 29.43701172 C491.12208105 26.75785993 476.99030891 24.18723171 462.82617188 21.76416016 C461.54548828 21.5429248 460.26480469 21.32168945 458.9453125 21.09375 C457.83687988 20.90490234 456.72844727 20.71605469 455.58642578 20.52148438 C453 20 453 20 451 19 C449.62063159 18.74812473 448.23345205 18.53818133 446.84375 18.3515625 C445.99594971 18.23490234 445.14814941 18.11824219 444.2746582 17.99804688 C443.359021 17.87494141 442.44338379 17.75183594 441.5 17.625 C435.45503821 16.79227306 429.42555933 15.93226002 423.41625977 14.87060547 C401.67933213 11.04135444 379.76045891 9.4411093 357.76196289 8.00195312 C356.85471466 7.94226349 355.94746643 7.88257385 355.01272583 7.82107544 C353.31248508 7.70996002 351.61211392 7.6008135 349.91159058 7.49411011 C346.14303909 7.24961205 342.41000283 6.93980911 338.6628418 6.46777344 C333.11990791 5.82964541 327.59708992 5.85694316 322.0234375 5.8671875 C320.87554749 5.86582291 319.72765747 5.86445831 318.54498291 5.86305237 C314.82162561 5.86103251 311.09834914 5.86733216 307.375 5.875 C305.47315948 5.87682785 305.47315948 5.87682785 303.53289795 5.87869263 C287.22638238 5.89709321 270.9264036 6.01642753 254.625 6.4375 C253.44656525 6.46683624 253.44656525 6.46683624 252.24432373 6.49676514 C245.74934384 6.66436307 239.28078927 6.86036487 232.81079102 7.48608398 C226.68701974 8.06115613 220.57197872 8.33334877 214.42578125 8.5390625 C213.18975662 8.58100739 211.95373199 8.62295227 210.68025208 8.66616821 C199.78196689 9.01345498 188.8834878 9.12661617 177.98046875 9.2109375 C176.66124609 9.22166668 176.66124609 9.22166668 175.31537247 9.23261261 C167.12380104 9.29914434 158.93223761 9.36329592 150.74047852 9.40136719 C130.82207575 9.49883225 111.00695896 9.90663309 91.140625 11.43359375 C90.3140357 11.49706875 89.4874464 11.56054375 88.63580894 11.62594223 C65.77184339 13.41804356 43.87218274 17.47993063 21.671875 23.09765625 C14.47826038 24.91251708 7.26326413 26.4860339 0 28 C0 18.76 0 9.52 0 0 Z " fill="#3B51A8" transform="translate(0,0)"/>
</svg>
