<?xml version="1.0" encoding="UTF-8" standalone="no" ?>
<!DOCTYPE svg PUBLIC "-//W3C//DTD SVG 1.1//EN" "http://www.w3.org/Graphics/SVG/1.1/DTD/svg11.dtd">
<svg xmlns="http://www.w3.org/2000/svg" xmlns:xlink="http://www.w3.org/1999/xlink" version="1.1" width="900" height="50" viewBox="0 0 900 50" xml:space="preserve">
<desc>Created with Fabric.js 5.2.4</desc>
<defs>
</defs>
<g transform="matrix(0 0 0 0 0 0)" id="622fefe4-f5d2-4cae-ba30-219da7ff5063"  >
</g>
<g transform="matrix(1 0 0 1 450 25)" id="41018fa9-1d78-44a9-966a-ac950d920c18"  >
<rect style="stroke: none; stroke-width: 1; stroke-dasharray: none; stroke-linecap: butt; stroke-dashoffset: 0; stroke-linejoin: miter; stroke-miterlimit: 4; fill: rgb(255,255,255); fill-rule: nonzero; opacity: 1; visibility: hidden;" vector-effect="non-scaling-stroke"  x="-450" y="-25" rx="0" ry="0" width="900" height="50" />
</g>
<g transform="matrix(1 0 0 1 328.8 -188.98)"  >
<rect style="stroke: none; stroke-width: 1; stroke-dasharray: none; stroke-linecap: butt; stroke-dashoffset: 0; stroke-linejoin: miter; stroke-miterlimit: 4; fill: rgb(255,255,255); fill-opacity: 0; fill-rule: nonzero; opacity: 1;" vector-effect="non-scaling-stroke"  x="-50" y="-50" rx="0" ry="0" width="100" height="100" />
</g>
<g transform="matrix(1 0 0 1 728.8 -88.98)"  >
<rect style="stroke: none; stroke-width: 1; stroke-dasharray: none; stroke-linecap: butt; stroke-dashoffset: 0; stroke-linejoin: miter; stroke-miterlimit: 4; fill: rgb(255,255,255); fill-rule: nonzero; opacity: 1; visibility: hidden;" vector-effect="non-scaling-stroke"  x="-450" y="-150" rx="0" ry="0" width="900" height="300" />
</g>
<g transform="matrix(1.48 0 0 1.48 643.65 -204.95)"  >
<path style="stroke: none; stroke-width: 1; stroke-dasharray: none; stroke-linecap: butt; stroke-dashoffset: 0; stroke-linejoin: miter; stroke-miterlimit: 4; fill: rgb(0,113,210); fill-rule: nonzero; opacity: 1;" vector-effect="non-scaling-stroke"  transform=" translate(-450, -59)" d="M 0 118 L 13.7 106.5 C 27.3 95 54.7 72 82 62.5 C 109.3 53 136.7 57 163.8 56 C 191 55 218 49 245.2 55.5 C 272.3 62 299.7 81 327 80 C 354.3 79 381.7 58 409 59 C 436.3 60 463.7 83 491 89 C 518.3 95 545.7 84 573 80 C 600.3 76 627.7 79 654.8 80 C 682 81 709 80 736.2 75.5 C 763.3 71 790.7 63 818 63.5 C 845.3 64 872.7 73 886.3 77.5 L 900 82 L 900 0 L 886.3 0 C 872.7 0 845.3 0 818 0 C 790.7 0 763.3 0 736.2 0 C 709 0 682 0 654.8 0 C 627.7 0 600.3 0 573 0 C 545.7 0 518.3 0 491 0 C 463.7 0 436.3 0 409 0 C 381.7 0 354.3 0 327 0 C 299.7 0 272.3 0 245.2 0 C 218 0 191 0 163.8 0 C 136.7 0 109.3 0 82 0 C 54.7 0 27.3 0 13.7 0 L 0 0 Z" stroke-linecap="round" />
</g>
<g transform="matrix(1.48 0 0 1.48 643.65 -134.02)"  >
<path style="stroke: none; stroke-width: 1; stroke-dasharray: none; stroke-linecap: butt; stroke-dashoffset: 0; stroke-linejoin: miter; stroke-miterlimit: 4; fill: rgb(0,113,210); fill-rule: nonzero; opacity: 1;" vector-effect="non-scaling-stroke"  transform=" translate(-450, -106.76)" d="M 0 163 L 13.7 151 C 27.3 139 54.7 115 82 104 C 109.3 93 136.7 95 163.8 93 C 191 91 218 85 245.2 89 C 272.3 93 299.7 107 327 104.5 C 354.3 102 381.7 83 409 88.5 C 436.3 94 463.7 124 491 132 C 518.3 140 545.7 126 573 118 C 600.3 110 627.7 108 654.8 108 C 682 108 709 110 736.2 104.5 C 763.3 99 790.7 86 818 89.5 C 845.3 93 872.7 113 886.3 123 L 900 133 L 900 80 L 886.3 75.5 C 872.7 71 845.3 62 818 61.5 C 790.7 61 763.3 69 736.2 73.5 C 709 78 682 79 654.8 78 C 627.7 77 600.3 74 573 78 C 545.7 82 518.3 93 491 87 C 463.7 81 436.3 58 409 57 C 381.7 56 354.3 77 327 78 C 299.7 79 272.3 60 245.2 53.5 C 218 47 191 53 163.8 54 C 136.7 55 109.3 51 82 60.5 C 54.7 70 27.3 93 13.7 104.5 L 0 116 Z" stroke-linecap="round" />
</g>
<g transform="matrix(1.48 0 0 1.48 643.65 -85.74)"  >
<path style="stroke: none; stroke-width: 1; stroke-dasharray: none; stroke-linecap: butt; stroke-dashoffset: 0; stroke-linejoin: miter; stroke-miterlimit: 4; fill: rgb(0,113,210); fill-rule: nonzero; opacity: 1;" vector-effect="non-scaling-stroke"  transform=" translate(-450, -139.25)" d="M 0 193 L 13.7 184.5 C 27.3 176 54.7 159 82 155 C 109.3 151 136.7 160 163.8 159.5 C 191 159 218 149 245.2 154 C 272.3 159 299.7 179 327 179 C 354.3 179 381.7 159 409 159.5 C 436.3 160 463.7 181 491 187.5 C 518.3 194 545.7 186 573 174.5 C 600.3 163 627.7 148 654.8 145.5 C 682 143 709 153 736.2 149 C 763.3 145 790.7 127 818 129 C 845.3 131 872.7 153 886.3 164 L 900 175 L 900 131 L 886.3 121 C 872.7 111 845.3 91 818 87.5 C 790.7 84 763.3 97 736.2 102.5 C 709 108 682 106 654.8 106 C 627.7 106 600.3 108 573 116 C 545.7 124 518.3 138 491 130 C 463.7 122 436.3 92 409 86.5 C 381.7 81 354.3 100 327 102.5 C 299.7 105 272.3 91 245.2 87 C 218 83 191 89 163.8 91 C 136.7 93 109.3 91 82 102 C 54.7 113 27.3 137 13.7 149 L 0 161 Z" stroke-linecap="round" />
</g>
<g transform="matrix(1.48 0 0 1.48 643.65 1.59)"  >
<path style="stroke: none; stroke-width: 1; stroke-dasharray: none; stroke-linecap: butt; stroke-dashoffset: 0; stroke-linejoin: miter; stroke-miterlimit: 4; fill: rgb(60,82,169); fill-rule: nonzero; opacity: 1;" vector-effect="non-scaling-stroke"  transform=" translate(-450, -198.12)" d="M 0 256 L 13.7 258.5 C 27.3 261 54.7 266 82 263.5 C 109.3 261 136.7 251 163.8 246.5 C 191 242 218 243 245.2 242.5 C 272.3 242 299.7 240 327 240 C 354.3 240 381.7 242 409 246 C 436.3 250 463.7 256 491 260.5 C 518.3 265 545.7 268 573 266 C 600.3 264 627.7 257 654.8 257.5 C 682 258 709 266 736.2 268.5 C 763.3 271 790.7 268 818 263 C 845.3 258 872.7 251 886.3 247.5 L 900 244 L 900 173 L 886.3 162 C 872.7 151 845.3 129 818 127 C 790.7 125 763.3 143 736.2 147 C 709 151 682 141 654.8 143.5 C 627.7 146 600.3 161 573 172.5 C 545.7 184 518.3 192 491 185.5 C 463.7 179 436.3 158 409 157.5 C 381.7 157 354.3 177 327 177 C 299.7 177 272.3 157 245.2 152 C 218 147 191 157 163.8 157.5 C 136.7 158 109.3 149 82 153 C 54.7 157 27.3 174 13.7 182.5 L 0 191 Z" stroke-linecap="round" />
</g>
<g transform="matrix(1.48 0 0 1.48 481.61 51.76)"  >
<path style="stroke: none; stroke-width: 1; stroke-dasharray: none; stroke-linecap: butt; stroke-dashoffset: 0; stroke-linejoin: miter; stroke-miterlimit: 4; fill: rgb(255,255,255); fill-rule: nonzero; opacity: 1;" vector-effect="non-scaling-stroke"  transform=" translate(-450, -269.5)" d="M 0 301 L 13.7 301 C 27.3 301 54.7 301 82 301 C 109.3 301 136.7 301 163.8 301 C 191 301 218 301 245.2 301 C 272.3 301 299.7 301 327 301 C 354.3 301 381.7 301 409 301 C 436.3 301 463.7 301 491 301 C 518.3 301 545.7 301 573 301 C 600.3 301 627.7 301 654.8 301 C 682 301 709 301 736.2 301 C 763.3 301 790.7 301 818 301 C 845.3 301 872.7 301 886.3 301 L 900 301 L 900 242 L 886.3 245.5 C 872.7 249 845.3 256 818 261 C 790.7 266 763.3 269 736.2 266.5 C 709 264 682 256 654.8 255.5 C 627.7 255 600.3 262 573 264 C 545.7 266 518.3 263 491 258.5 C 463.7 254 436.3 248 409 244 C 381.7 240 354.3 238 327 238 C 299.7 238 272.3 240 245.2 240.5 C 218 241 191 240 163.8 244.5 C 136.7 249 109.3 259 82 261.5 C 54.7 264 27.3 259 13.7 256.5 L 0 254 Z" stroke-linecap="round" />
</g>
<g transform="matrix(NaN NaN NaN NaN 0 0)"  >
<g style=""   >
</g>
</g>
<g transform="matrix(NaN NaN NaN NaN 0 0)"  >
<g style=""   >
</g>
</g>
</svg>