<?xml version="1.0" standalone="no"?>
<!DOCTYPE svg PUBLIC "-//W3C//DTD SVG 20010904//EN"
 "http://www.w3.org/TR/2001/REC-SVG-20010904/DTD/svg10.dtd">
<svg version="1.0" xmlns="http://www.w3.org/2000/svg"
 width="500.000000pt" height="500.000000pt" viewBox="0 0 500.000000 500.000000"
 preserveAspectRatio="xMidYMid meet">
<metadata>
Created by potrace 1.14, written by Peter Selinger 2001-2017
</metadata>
<g transform="translate(0.000000,500.000000) scale(0.100000,-0.100000)"
fill="#000000" stroke="none">
<path d="M3000 3971 c0 -6 48 -93 106 -193 58 -101 117 -202 130 -225 l25 -43
-146 0 c-81 0 -154 -4 -164 -9 -9 -5 -50 -66 -91 -135 l-74 -126 -36 58 c-20
31 -53 87 -74 125 -21 37 -46 72 -56 77 -28 15 -311 12 -331 -3 -8 -7 -34 -46
-57 -87 -22 -41 -47 -83 -54 -93 -12 -16 -31 19 -173 303 -88 176 -163 320
-167 320 -19 0 -2 -42 92 -230 l100 -200 -188 0 c-221 0 -196 13 -289 -150
-33 -58 -85 -148 -115 -200 -31 -52 -74 -126 -96 -164 l-40 -69 -43 77 c-77
135 -123 202 -126 185 -2 -9 65 -135 148 -280 84 -145 163 -284 177 -309 14
-25 33 -56 42 -70 10 -14 38 -61 62 -105 25 -44 57 -102 73 -130 38 -69 388
-683 506 -890 l98 -169 -29 -52 c-27 -46 -30 -64 -10 -64 4 0 13 13 20 30 25
61 34 57 92 -42 30 -51 57 -101 61 -110 7 -20 27 -24 27 -7 0 6 -29 62 -65
125 -57 98 -64 117 -54 135 12 24 3 36 98 -128 23 -40 45 -74 50 -78 5 -3 37
43 71 102 65 112 101 174 269 460 l100 172 -62 120 c-46 88 -59 123 -51 131 8
8 39 -46 118 -206 72 -144 111 -213 117 -207 7 7 -25 81 -95 222 -58 116 -106
215 -106 221 0 6 58 10 158 10 86 0 162 4 168 8 7 4 38 52 69 107 112 194 369
641 393 683 l24 43 65 -113 c36 -62 84 -145 107 -185 22 -39 49 -85 58 -102
16 -29 38 -42 38 -22 0 6 -41 81 -91 168 -51 87 -141 244 -202 348 -60 105
-110 195 -110 200 0 6 37 71 83 145 146 238 153 251 144 260 -5 5 -38 -40 -78
-108 -39 -64 -84 -139 -101 -167 -17 -27 -40 -63 -49 -79 l-18 -29 -70 124
c-39 68 -100 178 -138 244 -37 66 -76 136 -87 155 -11 19 -45 77 -74 129 -49
85 -79 121 -79 92z m-273 -771 l35 0 -30 -52 c-16 -29 -54 -96 -84 -148 -30
-52 -82 -141 -114 -197 -33 -57 -62 -103 -67 -103 -4 0 -37 61 -73 136 l-65
137 64 111 65 111 73 6 c41 4 94 5 118 3 24 -2 59 -4 78 -4z m703 1 c-1 -3
-20 -37 -44 -76 -24 -38 -86 -140 -137 -225 -51 -85 -113 -189 -139 -230 -26
-41 -76 -123 -111 -182 l-64 -108 -147 0 -147 0 96 163 c53 89 154 263 225
387 71 124 138 235 150 247 18 20 33 23 117 25 160 5 201 5 201 -1z m-1338
-33 c-11 -18 -95 -161 -185 -318 -91 -157 -192 -331 -225 -388 l-59 -103 -72
126 c-39 69 -71 131 -71 137 0 7 29 62 65 121 36 60 65 110 65 111 0 6 158
270 184 309 l26 37 146 0 146 0 -20 -32z m323 -423 l41 -80 -94 -160 c-52 -88
-106 -180 -120 -205 -14 -25 -51 -88 -81 -140 -31 -52 -90 -155 -131 -227 -41
-73 -77 -133 -80 -133 -5 0 -57 89 -122 208 l-29 52 49 83 c27 45 105 179 172
297 68 118 131 226 140 240 10 14 48 79 85 144 l68 119 31 -59 c16 -32 48 -95
71 -139z m270 -537 c33 -68 59 -128 59 -135 -2 -15 -467 -790 -485 -807 -3 -3
-34 44 -69 105 l-63 110 16 32 c23 46 68 124 211 372 233 402 259 445 265 445
4 0 33 -55 66 -122z m86 -410 c12 -29 19 -16 -161 -328 -21 -36 -68 -118 -105
-183 l-68 -118 -32 53 -33 53 36 65 c19 36 98 170 175 299 l140 234 18 -24
c10 -13 23 -36 30 -51z"/>
<path d="M2563 2193 c-281 -483 -403 -695 -403 -700 0 -16 94 -163 102 -161 5
2 17 16 26 31 16 25 16 30 1 55 -9 15 -24 41 -34 58 l-18 31 152 259 c84 142
167 281 184 308 l31 48 28 -56 c16 -31 32 -56 37 -56 5 0 16 11 25 25 16 24
15 28 -19 95 -19 38 -43 83 -54 100 l-19 31 -39 -68z"/>
</g>
</svg>
